<svg width="16" height="14" viewBox="0 0 16 14" fill="none" xmlns="http://www.w3.org/2000/svg">
<path d="M15.8333 12.5682H1.5V0.159091C1.5 0.0715909 1.425 0 1.33333 0H0.166667C0.075 0 0 0.0715909 0 0.159091V13.8409C0 13.9284 0.075 14 0.166667 14H15.8333C15.925 14 16 13.9284 16 13.8409V12.7273C16 12.6398 15.925 12.5682 15.8333 12.5682ZM3.70417 9.49972C3.76875 9.56136 3.87292 9.56136 3.93958 9.49972L6.82083 6.76335L9.47917 9.31676C9.54375 9.37841 9.65 9.37841 9.71458 9.31676L15.4521 3.84205C15.5167 3.7804 15.5167 3.67898 15.4521 3.61733L14.6271 2.82983C14.5958 2.80022 14.5535 2.78361 14.5094 2.78361C14.4653 2.78361 14.423 2.80022 14.3917 2.82983L9.6 7.4017L6.94583 4.85227C6.91451 4.82267 6.87221 4.80606 6.82812 4.80606C6.78404 4.80606 6.74174 4.82267 6.71042 4.85227L2.88125 8.48551C2.85023 8.51541 2.83283 8.55579 2.83283 8.59787C2.83283 8.63995 2.85023 8.68033 2.88125 8.71023L3.70417 9.49972Z" fill="#56606D"/>
</svg>
