<svg width="70" height="70" viewBox="0 0 70 70" fill="none" xmlns="http://www.w3.org/2000/svg">
<circle cx="35" cy="35" r="35" fill="#5667F5"/>
<path d="M33.816 46.504C33.0693 46.4187 32.344 46.2267 31.64 45.928C30.936 45.6293 30.2747 45.2347 29.656 44.744C29.0587 44.2533 28.5253 43.656 28.056 42.952C27.608 42.248 27.256 41.4373 27 40.52L30.168 39.208C30.4027 40.1467 30.84 40.9787 31.48 41.704C32.12 42.408 32.8987 42.8773 33.816 43.112V36.2L33.592 36.104C32.76 35.784 31.992 35.4213 31.288 35.016C30.584 34.5893 29.976 34.1093 29.464 33.576C28.952 33.0427 28.5573 32.456 28.28 31.816C28.0027 31.176 27.864 30.4507 27.864 29.64C27.864 28.9147 27.992 28.2213 28.248 27.56C28.5253 26.8987 28.92 26.3013 29.432 25.768C29.944 25.2347 30.5627 24.7973 31.288 24.456C32.0347 24.0933 32.8773 23.8587 33.816 23.752V21H36.472V23.816C37.304 23.944 38.0293 24.168 38.648 24.488C39.2667 24.808 39.8 25.1813 40.248 25.608C40.696 26.0133 41.0587 26.4507 41.336 26.92C41.6133 27.368 41.8267 27.7947 41.976 28.2L38.84 29.576C38.6907 29.128 38.424 28.68 38.04 28.232C37.6773 27.784 37.1547 27.4427 36.472 27.208V33.672C37.304 34.0347 38.0827 34.4187 38.808 34.824C39.5333 35.208 40.1627 35.656 40.696 36.168C41.2293 36.6587 41.6453 37.2347 41.944 37.896C42.264 38.536 42.424 39.2827 42.424 40.136C42.424 41.096 42.2533 41.9387 41.912 42.664C41.592 43.3893 41.1547 44.0187 40.6 44.552C40.0667 45.0853 39.4373 45.512 38.712 45.832C38.008 46.1307 37.2613 46.344 36.472 46.472V49.288H33.816V46.504ZM38.872 40.2C38.872 39.5173 38.6693 38.9627 38.264 38.536C37.88 38.1093 37.2827 37.704 36.472 37.32V43.048C37.176 42.856 37.752 42.5253 38.2 42.056C38.648 41.5653 38.872 40.9467 38.872 40.2ZM31.288 29.672C31.288 30.2907 31.4907 30.824 31.896 31.272C32.3227 31.6987 32.9627 32.1253 33.816 32.552V27.048C33.048 27.2187 32.4293 27.5387 31.96 28.008C31.512 28.456 31.288 29.0107 31.288 29.672Z" fill="white"/>
</svg>
