<svg width="35" height="35" viewBox="0 0 35 35" fill="none" xmlns="http://www.w3.org/2000/svg">
<circle cx="17.5" cy="17.5" r="17.5" fill="#ECEFFF"/>
<path d="M16.1766 9.47229C16.115 9.46407 16.0525 9.46885 15.9933 9.48631C15.9341 9.50377 15.8794 9.53352 15.8328 9.57365C15.7862 9.61377 15.7487 9.66338 15.7227 9.71927C15.6968 9.77515 15.6829 9.83607 15.6821 9.89809L15.6785 10.1945C15.6769 10.3029 15.7154 10.4087 15.7864 10.4919C15.8575 10.575 15.9562 10.6296 16.0637 10.6453C16.8372 10.7533 17.5579 11.1132 18.1138 11.669C18.6696 12.2249 19.0295 12.9456 19.1375 13.7191C19.1533 13.8266 19.2081 13.9253 19.2913 13.9962C19.3745 14.0672 19.4804 14.1055 19.5888 14.1038L19.8852 14.1002C19.9472 14.0994 20.0082 14.0855 20.0641 14.0595C20.1199 14.0336 20.1695 13.9961 20.2097 13.9495C20.2498 13.9029 20.2796 13.8482 20.297 13.789C20.3145 13.7298 20.3192 13.6673 20.311 13.6057C20.1723 12.5629 19.6902 11.59 18.9413 10.8413C18.1924 10.0926 17.2195 9.6108 16.1766 9.47229ZM16.1833 7.10717C16.1228 7.1012 16.062 7.10773 16.0046 7.12637C15.9472 7.145 15.8944 7.17533 15.8497 7.21547C15.8049 7.25561 15.769 7.3047 15.7444 7.35967C15.7197 7.41463 15.7067 7.4743 15.7061 7.53495L15.7025 7.83037C15.7008 7.94238 15.7418 8.0516 15.8172 8.13588C15.8926 8.22015 15.9966 8.27316 16.1084 8.28416C17.4849 8.4198 18.7787 9.03378 19.7639 10.0189C20.749 11.0041 21.363 12.2979 21.4986 13.6744C21.5096 13.7862 21.5627 13.8903 21.6469 13.9656C21.7312 14.041 21.8404 14.082 21.9524 14.0803L22.2479 14.0767C22.3085 14.0761 22.3682 14.0631 22.4231 14.0384C22.4781 14.0138 22.5272 13.9779 22.5673 13.9331C22.6075 13.8884 22.6378 13.8356 22.6564 13.7782C22.6751 13.7208 22.6816 13.66 22.6756 13.5996C22.5172 11.9397 21.7791 10.3786 20.5913 9.19118C19.4036 8.00372 17.8423 7.26601 16.1825 7.10795L16.1833 7.10717ZM15.6595 12.2807L15.6551 12.5858C15.6543 12.6824 15.685 12.7772 15.7425 12.8558C15.8 12.9344 15.8813 12.9926 15.974 13.0216C16.1579 13.0797 16.3257 13.1817 16.4626 13.3186C16.5995 13.4556 16.7015 13.6233 16.7596 13.8073C16.7884 13.9002 16.8466 13.9818 16.9254 14.0395C17.0042 14.0972 17.0992 14.128 17.196 14.1271L17.501 14.1228C17.5678 14.122 17.6334 14.1061 17.6927 14.0762C17.7519 14.0463 17.8035 14.0033 17.8434 13.9504C17.8833 13.8975 17.9106 13.836 17.9231 13.7705C17.9357 13.7051 17.9332 13.6374 17.9159 13.5725C17.807 13.1641 17.5913 12.7904 17.291 12.4902C16.9908 12.19 16.6171 11.9742 16.2087 11.8653C16.1437 11.848 16.076 11.8456 16.0105 11.8583C15.945 11.8709 15.8834 11.8983 15.8305 11.9384C15.7776 11.9784 15.7346 12.0301 15.7049 12.0895C15.6751 12.149 15.6593 12.2146 15.6587 12.2815L15.6595 12.2807Z" fill="#5667F5"/>
<path d="M14.2903 18.3391C15.2756 20.399 16.9411 22.0644 19.0009 23.0498L20.2933 21.4646C20.3791 21.3592 20.4974 21.2852 20.6302 21.2537C20.7631 21.2222 20.9034 21.235 21.0299 21.2901L23.9906 22.5803C24.1274 22.6398 24.2397 22.7452 24.3079 22.878C24.3761 23.0108 24.3959 23.1625 24.3637 23.3066L23.757 26.0415C23.7262 26.1805 23.6491 26.3042 23.5381 26.3924C23.4271 26.4806 23.2889 26.5281 23.1459 26.5271C16.389 26.4662 10.8735 20.9409 10.813 14.1942C10.8118 14.0512 10.8591 13.9128 10.9471 13.8017C11.0352 13.6906 11.1588 13.6133 11.2978 13.5823L14.0316 12.9745C14.1761 12.9422 14.3282 12.962 14.4613 13.0305C14.5943 13.099 14.6999 13.2117 14.7593 13.349L16.0492 16.31C16.1044 16.4364 16.1172 16.5766 16.0858 16.7095C16.0544 16.8424 15.9805 16.9606 15.8752 17.0465L14.2903 18.3391Z" fill="#5667F5"/>
</svg>
