<svg width="35" height="35" viewBox="0 0 35 35" fill="none" xmlns="http://www.w3.org/2000/svg">
<circle cx="17.5" cy="17.5" r="17.5" fill="#ECEFFF"/>
<path d="M24.7337 9L15.2589 12.6922V19.729L24.7337 23.4212V9Z" fill="#5667F5"/>
<path d="M14.3634 12.8281H13.6V19.5834H14.3634V12.8281Z" fill="#5667F5"/>
<path d="M12.7089 19.4246V12.6693H9.62999C9.19769 12.6693 8.7831 12.8366 8.47741 13.1344C8.17173 13.4322 8 13.8361 8 14.2573V17.8436C8 18.2648 8.17173 18.6687 8.47741 18.9666C8.7831 19.2644 9.19769 19.4317 9.62999 19.4317L12.7089 19.4246Z" fill="#5667F5"/>
<path d="M28 16.08C27.9993 15.4859 27.7567 14.9163 27.3255 14.4962C26.8943 14.0761 26.3097 13.8398 25.6999 13.8391H25.6293V18.3209H25.6999C26.3097 18.3202 26.8943 18.0839 27.3255 17.6638C27.7567 17.2437 27.9993 16.6741 28 16.08Z" fill="#5667F5"/>
<path d="M12.3086 26C12.551 25.9999 12.7902 25.9454 13.0075 25.8406C13.2248 25.7359 13.4144 25.5837 13.5615 25.3959C13.7086 25.2081 13.8092 24.9898 13.8556 24.7579C13.902 24.5261 13.8929 24.2869 13.829 24.0591L12.8111 20.4604H9.62633H9.53577L10.7854 24.8778C10.879 25.201 11.0785 25.4857 11.3535 25.6882C11.6284 25.8908 11.9638 26.0003 12.3086 26Z" fill="#5667F5"/>
</svg>
