<svg width="49" height="49" viewBox="0 0 49 49" fill="none" xmlns="http://www.w3.org/2000/svg">
<circle cx="24.5" cy="24.5" r="24.5" fill="#D556F5"/>
<path d="M32.1499 18C31.0905 18 30.051 18.295 29.1423 18.8535C28.2336 19.4121 27.4899 20.2132 26.9905 21.1715C26.491 22.1297 26.2547 23.209 26.3066 24.2943C26.3586 25.3795 26.6969 26.4299 27.2854 27.3333H22.7143C23.4388 26.2211 23.7802 24.8925 23.6843 23.5586C23.5883 22.2246 23.0605 20.9617 22.1847 19.9706C21.3088 18.9796 20.1352 18.317 18.8502 18.0883C17.5653 17.8597 16.2426 18.0779 15.0924 18.7084C13.9423 19.339 13.0305 20.3456 12.5019 21.5684C11.9734 22.7913 11.8584 24.1602 12.1753 25.4577C12.4921 26.7552 13.2226 27.907 14.2507 28.7299C15.2788 29.5529 16.5456 29.9999 17.8498 30H32.1499C33.7015 30 35.1895 29.3679 36.2866 28.2426C37.3837 27.1174 38 25.5913 38 24C38 22.4087 37.3837 20.8826 36.2866 19.7574C35.1895 18.6321 33.7015 18 32.1499 18ZM14.5997 24C14.5997 23.3407 14.7904 22.6963 15.1475 22.1481C15.5046 21.5999 16.0122 21.1727 16.606 20.9204C17.1999 20.6681 17.8534 20.6021 18.4838 20.7307C19.1143 20.8593 19.6934 21.1768 20.1479 21.643C20.6024 22.1092 20.912 22.7031 21.0374 23.3497C21.1628 23.9963 21.0984 24.6665 20.8524 25.2756C20.6064 25.8847 20.1899 26.4053 19.6554 26.7716C19.1209 27.1378 18.4926 27.3333 17.8498 27.3333C16.9878 27.3333 16.1612 26.9821 15.5517 26.357C14.9422 25.7319 14.5997 24.8841 14.5997 24ZM32.1499 27.3333C31.5071 27.3333 30.8788 27.1378 30.3443 26.7716C29.8099 26.4053 29.3933 25.8847 29.1473 25.2756C28.9013 24.6665 28.8369 23.9963 28.9624 23.3497C29.0878 22.7031 29.3973 22.1092 29.8518 21.643C30.3063 21.1768 30.8854 20.8593 31.5159 20.7307C32.1463 20.6021 32.7998 20.6681 33.3937 20.9204C33.9875 21.1727 34.4951 21.5999 34.8522 22.1481C35.2094 22.6963 35.4 23.3407 35.4 24C35.4 24.8841 35.0576 25.7319 34.4481 26.357C33.8386 26.9821 33.0119 27.3333 32.1499 27.3333Z" fill="white"/>
</svg>
