<svg width="49" height="49" viewBox="0 0 49 49" fill="none" xmlns="http://www.w3.org/2000/svg">
<circle cx="24.5" cy="24.5" r="24.5" fill="#50B1E8"/>
<path d="M16.7727 21H17.5455C17.9724 21 18.3182 21.3356 18.3182 21.75V24C18.3182 27.5063 21.4328 30.3197 25.1177 29.9709C28.3293 29.6667 30.6818 26.8645 30.6818 23.7328V21.75C30.6818 21.3356 31.0276 21 31.4545 21H32.2273C32.6542 21 33 21.3356 33 21.75V23.6325C33 27.8344 29.9105 31.5802 25.6591 32.1492V33.75H28.3636C28.7906 33.75 29.1364 34.0856 29.1364 34.5V35.25C29.1364 35.6644 28.7906 36 28.3636 36H20.6364C20.2094 36 19.8636 35.6644 19.8636 35.25V34.5C19.8636 34.0856 20.2094 33.75 20.6364 33.75H23.3409V32.167C19.2015 31.6158 16 28.1672 16 24V21.75C16 21.3356 16.3458 21 16.7727 21ZM24.5 28.5C21.9394 28.5 19.8636 26.4853 19.8636 24V16.5C19.8636 14.0147 21.9394 12 24.5 12C27.0606 12 29.1364 14.0147 29.1364 16.5V24C29.1364 26.4853 27.0606 28.5 24.5 28.5ZM26.8182 16.5C26.8182 15.2592 25.7784 14.25 24.5 14.25C23.2216 14.25 22.1818 15.2592 22.1818 16.5V24C22.1818 25.2408 23.2216 26.25 24.5 26.25C25.7784 26.25 26.8182 25.2408 26.8182 24V16.5Z" fill="white"/>
</svg>
