<svg width="49" height="49" viewBox="0 0 49 49" fill="none" xmlns="http://www.w3.org/2000/svg">
<circle cx="24.5" cy="24.5" r="24.5" fill="#FF598B"/>
<path d="M24.5 14C18.148 14 13 18.1562 13 23.2857C13 25.5 13.9613 27.5268 15.5605 29.1205C14.999 31.3705 13.1213 33.375 13.0988 33.3973C13 33.5 12.973 33.6518 13.0314 33.7857C13.0898 33.9196 13.2156 34 13.3594 34C16.3377 34 18.5703 32.5804 19.6754 31.7054C21.1443 32.2545 22.775 32.5714 24.5 32.5714C30.852 32.5714 36 28.4152 36 23.2857C36 18.1562 30.852 14 24.5 14ZM18.759 26.1429H18.2109C18.0133 26.1429 17.8516 25.9821 17.8516 25.7857V25.0714C17.8516 24.875 18.0133 24.7143 18.2109 24.7143H18.7635C19.033 24.7143 19.2307 24.558 19.2307 24.4196C19.2307 24.3616 19.1947 24.2991 19.1363 24.25L18.1525 23.4107C17.7707 23.0893 17.5551 22.6295 17.5551 22.1562C17.5551 21.2054 18.4086 20.433 19.4598 20.433H20.0078C20.2055 20.433 20.3672 20.5938 20.3672 20.7902V21.5045C20.3672 21.7009 20.2055 21.8616 20.0078 21.8616H19.4553C19.1857 21.8616 18.9881 22.0179 18.9881 22.1562C18.9881 22.2143 19.024 22.2768 19.0824 22.3259L20.0662 23.1652C20.448 23.4866 20.6637 23.9464 20.6637 24.4196C20.6682 25.3705 19.8102 26.1429 18.759 26.1429ZM27.375 25.7857C27.375 25.9821 27.2133 26.1429 27.0156 26.1429H26.2969C26.0992 26.1429 25.9375 25.9821 25.9375 25.7857V22.7411L24.8234 25.2321C24.6932 25.4955 24.3113 25.4955 24.1811 25.2321L23.0625 22.7411V25.7857C23.0625 25.9821 22.9008 26.1429 22.7031 26.1429H21.9844C21.7867 26.1429 21.625 25.9821 21.625 25.7857V21.1429C21.625 20.75 21.9484 20.4286 22.3438 20.4286H23.0625C23.3365 20.4286 23.5836 20.5804 23.7049 20.8214L24.5 22.4018L25.2951 20.8214C25.4164 20.5804 25.668 20.4286 25.9375 20.4286H26.6562C27.0516 20.4286 27.375 20.75 27.375 21.1429V25.7857ZM29.5447 26.1429H28.9922C28.7945 26.1429 28.6328 25.9821 28.6328 25.7857V25.0714C28.6328 24.875 28.7945 24.7143 28.9922 24.7143H29.5447C29.8143 24.7143 30.0119 24.558 30.0119 24.4196C30.0119 24.3616 29.976 24.2991 29.9176 24.25L28.9338 23.4107C28.552 23.0893 28.3363 22.6295 28.3363 22.1562C28.3363 21.2054 29.1898 20.433 30.241 20.433H30.7891C30.9867 20.433 31.1484 20.5938 31.1484 20.7902V21.5045C31.1484 21.7009 30.9867 21.8616 30.7891 21.8616H30.2365C29.967 21.8616 29.7693 22.0179 29.7693 22.1562C29.7693 22.2143 29.8053 22.2768 29.8637 22.3259L30.8475 23.1652C31.2293 23.4866 31.4449 23.9464 31.4449 24.4196C31.4494 25.3705 30.5959 26.1429 29.5447 26.1429Z" fill="white"/>
</svg>
