<svg width="49" height="49" viewBox="0 0 49 49" fill="none" xmlns="http://www.w3.org/2000/svg">
<circle cx="24.5" cy="24.5" r="24.5" fill="#33D69F"/>
<path d="M26.7776 23.1112H30.7776C31.023 23.1112 31.222 22.9122 31.222 22.6668V21.7779C31.222 21.5324 31.023 21.3334 30.7776 21.3334H28.9234L32.8696 17.3872C33.0432 17.2136 33.0432 16.9323 32.8696 16.7587L32.2412 16.1303C32.0676 15.9567 31.7863 15.9567 31.6127 16.1303L27.6665 20.0765V18.2223C27.6665 17.9768 27.4675 17.7778 27.222 17.7778H26.3331C26.0877 17.7778 25.8887 17.9768 25.8887 18.2223V22.2223C25.8887 22.7132 26.2867 23.1112 26.7776 23.1112Z" fill="white"/>
<path d="M31.7161 26.5022C30.7361 26.5022 29.7743 26.349 28.8629 26.0478C28.4158 25.8964 27.8672 26.0352 27.5946 26.3152L25.796 27.6733C23.71 26.5596 22.4245 25.2748 21.3255 23.2041L22.645 21.4511C22.9878 21.1082 23.1094 20.6086 22.9618 20.1416C22.6597 19.2241 22.506 18.2623 22.506 17.284C22.5061 16.576 21.9305 16.0001 21.2222 16.0001H18.2838C17.5755 16.0001 17 16.576 17 17.2839C17 25.3985 23.6016 32.0001 31.7161 32.0001C32.4245 32.0001 33 31.4241 33 30.7162V27.7861C33 27.0782 32.4245 26.5022 31.7161 26.5022Z" fill="white"/>
</svg>
