<svg width="49" height="49" viewBox="0 0 49 49" fill="none" xmlns="http://www.w3.org/2000/svg">
<circle cx="24.5" cy="24.5" r="24.5" fill="#8753DB"/>
<path d="M31.9399 16.8114L28.0762 15.7761C27.8391 15.7126 27.5954 15.8533 27.5318 16.0904L27.3018 16.949C27.2382 17.1861 27.379 17.4298 27.616 17.4933L29.407 17.9732L24.5739 20.7636C24.3613 20.8864 24.2885 21.1582 24.4113 21.3707L24.8556 22.1404C24.9784 22.353 25.2501 22.4258 25.4627 22.3031L30.2958 19.5127L29.8159 21.3037C29.7524 21.5408 29.8931 21.7845 30.1302 21.848L30.9888 22.0781C31.2259 22.1416 31.4696 22.0009 31.5332 21.7638L32.5684 17.9001C32.6955 17.4259 32.4141 16.9385 31.9399 16.8114Z" fill="white"/>
<path d="M30.7161 26.5022C29.7361 26.5022 28.7743 26.349 27.8629 26.0478C27.4158 25.8964 26.8672 26.0352 26.5946 26.3152L24.796 27.6733C22.71 26.5596 21.4245 25.2748 20.3255 23.2041L21.645 21.4511C21.9878 21.1082 22.1094 20.6086 21.9618 20.1416C21.6597 19.2241 21.506 18.2623 21.506 17.284C21.5061 16.576 20.9305 16.0001 20.2222 16.0001H17.2838C16.5755 16.0001 16 16.576 16 17.2839C16 25.3985 22.6016 32.0001 30.7161 32.0001C31.4245 32.0001 32 31.4241 32 30.7162V27.7861C32 27.0782 31.4245 26.5022 30.7161 26.5022Z" fill="white"/>
</svg>
