<svg width="19" height="19" viewBox="0 0 19 19" fill="none" xmlns="http://www.w3.org/2000/svg">
<path d="M9.5 0C4.25202 0 0 4.25202 0 9.5C0 14.748 4.25202 19 9.5 19C14.748 19 19 14.748 19 9.5C19 4.25202 14.748 0 9.5 0ZM13.043 11.9899L12.2768 12.9476C12.2266 13.0104 12.1644 13.0628 12.0939 13.1016C12.0234 13.1404 11.9459 13.165 11.8659 13.1739C11.7859 13.1828 11.7049 13.1758 11.6276 13.1534C11.5503 13.131 11.4782 13.0936 11.4153 13.0433L8.84879 11.1388C8.66946 10.9952 8.52471 10.8131 8.42525 10.606C8.32579 10.399 8.27417 10.1722 8.27419 9.94244V3.98387C8.27419 3.82132 8.33877 3.66542 8.45371 3.55048C8.56865 3.43554 8.72455 3.37097 8.8871 3.37097H10.1129C10.2755 3.37097 10.4314 3.43554 10.5463 3.55048C10.6612 3.66542 10.7258 3.82132 10.7258 3.98387V9.5L12.9476 11.128C13.0105 11.1783 13.0628 11.2405 13.1017 11.3111C13.1405 11.3816 13.165 11.4592 13.1739 11.5392C13.1827 11.6192 13.1757 11.7003 13.1533 11.7776C13.1308 11.8549 13.0933 11.9271 13.043 11.9899Z" fill="#5667F5"/>
</svg>
