<svg width="36" height="36" viewBox="0 0 36 36" fill="none" xmlns="http://www.w3.org/2000/svg">
<path d="M17 0.577351C17.6188 0.220085 18.3812 0.220085 19 0.57735L32.5885 8.42265C33.2073 8.77991 33.5885 9.44017 33.5885 10.1547V25.8453C33.5885 26.5598 33.2073 27.2201 32.5885 27.5774L19 35.4226C18.3812 35.7799 17.6188 35.7799 17 35.4226L3.41154 27.5774C2.79274 27.2201 2.41154 26.5598 2.41154 25.8453V10.1547C2.41154 9.44017 2.79274 8.77991 3.41154 8.42265L17 0.577351Z" fill="#5667F5"/>
<path d="M20.9001 15.1H14.1001V21.9H20.9001V15.1Z" fill="white"/>
<path d="M25.15 19.35C25.66 19.35 26 19.01 26 18.5C26 18.075 25.66 17.65 25.15 17.65H24.3V15.95H25.15C25.66 15.95 26 15.61 26 15.1C26 14.675 25.66 14.25 25.15 14.25H24.3V13.4C24.3 12.465 23.535 11.7 22.6 11.7H21.75V10.85C21.75 10.425 21.41 10 20.9 10C20.475 10 20.05 10.34 20.05 10.85V11.7H18.35V10.85C18.35 10.425 18.01 10 17.5 10C16.99 10 16.65 10.34 16.65 10.85V11.7H14.95V10.85C14.95 10.425 14.61 10 14.1 10C13.59 10 13.25 10.34 13.25 10.85V11.7H12.4C11.465 11.7 10.7 12.465 10.7 13.4V14.25H9.85C9.34 14.25 9 14.59 9 15.1C9 15.525 9.34 15.95 9.85 15.95H10.7V17.65H9.85C9.34 17.65 9 17.99 9 18.5C9 18.925 9.34 19.35 9.85 19.35H10.7V21.05H9.85C9.34 21.05 9 21.39 9 21.9C9 22.325 9.34 22.75 9.85 22.75H10.7V23.6C10.7 24.535 11.465 25.3 12.4 25.3H13.25V26.15C13.25 26.575 13.59 27 14.1 27C14.61 27 14.95 26.66 14.95 26.15V25.3H16.65V26.15C16.65 26.575 16.99 27 17.5 27C18.01 27 18.35 26.66 18.35 26.15V25.3H20.05V26.15C20.05 26.575 20.39 27 20.9 27C21.325 27 21.75 26.66 21.75 26.15V25.3H22.6C23.535 25.3 24.3 24.535 24.3 23.6V22.75H25.15C25.66 22.75 26 22.41 26 21.9C26 21.475 25.66 21.05 25.15 21.05H24.3V19.35H25.15ZM22.6 23.6H12.4V13.4H22.6V23.6Z" fill="white"/>
</svg>
