<svg width="35" height="35" viewBox="0 0 35 35" fill="none" xmlns="http://www.w3.org/2000/svg">
<circle cx="17.5" cy="17.5" r="17.5" fill="#58CBEF"/>
<path d="M26.4688 22.8571H25.9375V12.1429C25.9375 11.5745 25.7136 11.0295 25.3151 10.6276C24.9166 10.2258 24.3761 10 23.8125 10H13.1875C12.6239 10 12.0834 10.2258 11.6849 10.6276C11.2864 11.0295 11.0625 11.5745 11.0625 12.1429V22.8571H10.5312C10.3904 22.8571 10.2552 22.9136 10.1556 23.014C10.056 23.1145 10 23.2508 10 23.3929V24.4643C10 24.6064 10.056 24.7426 10.1556 24.8431C10.2552 24.9436 10.3904 25 10.5312 25H26.4688C26.6096 25 26.7448 24.9436 26.8444 24.8431C26.944 24.7426 27 24.6064 27 24.4643V23.3929C27 23.2508 26.944 23.1145 26.8444 23.014C26.7448 22.9136 26.6096 22.8571 26.4688 22.8571ZM18.5 22.8571C17.4493 22.8571 16.4222 22.543 15.5485 21.9543C14.6749 21.3657 13.994 20.529 13.5919 19.5501C13.1898 18.5712 13.0846 17.4941 13.2896 16.4549C13.4946 15.4157 14.0005 14.4611 14.7435 13.7119C15.4865 12.9627 16.4331 12.4525 17.4636 12.2458C18.4941 12.0391 19.5623 12.1452 20.533 12.5506C21.5037 12.9561 22.3334 13.6428 22.9172 14.5237C23.5009 15.4047 23.8125 16.4405 23.8125 17.5C23.8125 18.9208 23.2528 20.2834 22.2565 21.2881C21.2602 22.2927 19.909 22.8571 18.5 22.8571ZM18.5 16.4286C18.2899 16.4286 18.0844 16.4914 17.9097 16.6091C17.735 16.7269 17.5988 16.8942 17.5184 17.09C17.438 17.2858 17.4169 17.5012 17.4579 17.709C17.4989 17.9169 17.6001 18.1078 17.7487 18.2576C17.8973 18.4075 18.0866 18.5095 18.2927 18.5508C18.4988 18.5922 18.7125 18.571 18.9066 18.4899C19.1007 18.4088 19.2667 18.2714 19.3834 18.0953C19.5002 17.9191 19.5625 17.7119 19.5625 17.5C19.5625 17.2158 19.4506 16.9433 19.2513 16.7424C19.052 16.5415 18.7818 16.4286 18.5 16.4286Z" fill="white"/>
</svg>
