<svg width="18" height="18" viewBox="0 0 18 18" fill="none" xmlns="http://www.w3.org/2000/svg">
<path d="M8.3 5.6C8.4 5.6 8.4 5.6 8.3 5.6C8.4 5.2 8.5 5 8.5 4.7V4.5C8.6 4 8.6 3.6 8.5 3.5C8.5 3.5 8.5 3.5 8.5 3.4L8.4 3.3C8.4 3.3 8.4 3.4 8.3 3.4C8.1 4 8.1 4.7 8.3 5.6ZM5.3 12.5C5.1 12.6 4.9 12.7 4.8 12.8C4.1 13.4 3.6 14.1 3.5 14.4C4.1 14.3 4.7 13.7 5.3 12.5C5.4 12.5 5.4 12.5 5.3 12.5C5.4 12.5 5.3 12.5 5.3 12.5ZM14.5 11C14.4 10.9 14 10.6 12.6 10.6C12.5 10.6 12.5 10.6 12.4 10.6C12.4 10.6 12.4 10.6 12.4 10.7C13.1 11 13.8 11.2 14.3 11.2C14.4 11.2 14.4 11.2 14.5 11.2H14.6C14.6 11.2 14.6 11.2 14.6 11.1C14.6 11.1 14.5 11.1 14.5 11ZM16 0H2C0.9 0 0 0.9 0 2V16C0 17.1 0.9 18 2 18H16C17.1 18 18 17.1 18 16V2C18 0.9 17.1 0 16 0ZM14.9 11.8C14.7 11.9 14.4 12 14 12C13.2 12 12 11.8 11 11.3C9.3 11.5 8 11.7 7 12.1C6.9 12.1 6.9 12.1 6.8 12.2C5.6 14.3 4.6 15.3 3.8 15.3C3.6 15.3 3.5 15.3 3.4 15.2L2.9 14.9V14.8C2.8 14.6 2.8 14.5 2.8 14.3C2.9 13.8 3.5 12.9 4.7 12.2C4.9 12.1 5.2 11.9 5.6 11.7C5.9 11.2 6.2 10.6 6.6 9.9C7.1 8.9 7.4 7.9 7.7 7C7.3 5.8 7.1 5.1 7.5 3.7C7.6 3.3 7.9 2.9 8.3 2.9H8.5C8.7 2.9 8.9 3 9.1 3.1C9.80004 3.8 9.5 5.4 9.1 6.7C9.1 6.8 9.1 6.8 9.1 6.8C9.5 7.9 10.1 8.8 10.7 9.4C11 9.6 11.2 9.8 11.6 10C12.1 10 12.5 9.9 12.9 9.9C14.1 9.9 14.9 10.1 15.2 10.6C15.3 10.8 15.3 11 15.3 11.2C15.2 11.3 15.1 11.6 14.9 11.8ZM8.4 7.9C8.2 8.6 7.8 9.4 7.4 10.3C7.2 10.7 7 11 6.8 11.4H6.9H7C8.3 10.9 9.5 10.6 10.3 10.5C10.1 10.4 10 10.3 9.9 10.2C9.4 9.6 8.8 8.8 8.4 7.9Z" fill="#56606D"/>
</svg>
