<svg width="18" height="18" viewBox="0 0 18 18" fill="none" xmlns="http://www.w3.org/2000/svg">
<path d="M17.4375 15.1879H9.5625C9.252 15.1879 9 14.9359 9 14.6254C9 14.3149 9 3.68589 9 3.37539C9 3.06489 9.252 2.81289 9.5625 2.81289H17.4375C17.748 2.81289 18 3.06489 18 3.37539V14.6254C18 14.9359 17.748 15.1879 17.4375 15.1879Z" fill="white"/>
<path d="M11.8125 6.18789H9.5625C9.252 6.18789 9 5.93589 9 5.62539C9 5.31489 9.252 5.06289 9.5625 5.06289H11.8125C12.123 5.06289 12.375 5.31489 12.375 5.62539C12.375 5.93589 12.123 6.18789 11.8125 6.18789Z" fill="#56606D"/>
<path d="M11.8125 8.43789H9.5625C9.252 8.43789 9 8.18589 9 7.87539C9 7.56489 9.252 7.31289 9.5625 7.31289H11.8125C12.123 7.31289 12.375 7.56489 12.375 7.87539C12.375 8.18589 12.123 8.43789 11.8125 8.43789Z" fill="#56606D"/>
<path d="M11.8125 10.6879H9.5625C9.252 10.6879 9 10.4359 9 10.1254C9 9.81489 9.252 9.56289 9.5625 9.56289H11.8125C12.123 9.56289 12.375 9.81489 12.375 10.1254C12.375 10.4359 12.123 10.6879 11.8125 10.6879Z" fill="#56606D"/>
<path d="M11.8125 12.9379H9.5625C9.252 12.9379 9 12.6859 9 12.3754C9 12.0649 9.252 11.8129 9.5625 11.8129H11.8125C12.123 11.8129 12.375 12.0649 12.375 12.3754C12.375 12.6859 12.123 12.9379 11.8125 12.9379Z" fill="#56606D"/>
<path d="M15.1875 6.18789H14.0625C13.752 6.18789 13.5 5.93589 13.5 5.62539C13.5 5.31489 13.752 5.06289 14.0625 5.06289H15.1875C15.498 5.06289 15.75 5.31489 15.75 5.62539C15.75 5.93589 15.498 6.18789 15.1875 6.18789Z" fill="#56606D"/>
<path d="M15.1875 8.43789H14.0625C13.752 8.43789 13.5 8.18589 13.5 7.87539C13.5 7.56489 13.752 7.31289 14.0625 7.31289H15.1875C15.498 7.31289 15.75 7.56489 15.75 7.87539C15.75 8.18589 15.498 8.43789 15.1875 8.43789Z" fill="#56606D"/>
<path d="M15.1875 10.6879H14.0625C13.752 10.6879 13.5 10.4359 13.5 10.1254C13.5 9.81489 13.752 9.56289 14.0625 9.56289H15.1875C15.498 9.56289 15.75 9.81489 15.75 10.1254C15.75 10.4359 15.498 10.6879 15.1875 10.6879Z" fill="#56606D"/>
<path d="M15.1875 12.9379H14.0625C13.752 12.9379 13.5 12.6859 13.5 12.3754C13.5 12.0649 13.752 11.8129 14.0625 11.8129H15.1875C15.498 11.8129 15.75 12.0649 15.75 12.3754C15.75 12.6859 15.498 12.9379 15.1875 12.9379Z" fill="#56606D"/>
<path d="M9.92138 0.692261C9.79313 0.585386 9.621 0.539261 9.459 0.573011L0.459 2.26051C0.192375 2.31001 0 2.54176 0 2.81289V15.1879C0 15.4579 0.192375 15.6908 0.459 15.7403L9.459 17.4278C9.49275 17.4345 9.52763 17.4379 9.5625 17.4379C9.693 17.4379 9.82013 17.3929 9.92138 17.3085C10.0508 17.2016 10.125 17.0419 10.125 16.8754V1.12539C10.125 0.957761 10.0508 0.799136 9.92138 0.692261Z" fill="#56606D"/>
<path d="M7.73608 10.8803L5.95745 8.84739L7.75633 6.53439C7.94758 6.28914 7.90258 5.93589 7.65845 5.74464C7.41433 5.55339 7.06108 5.59839 6.8687 5.84251L5.20258 7.98451L3.79858 6.38026C3.5927 6.14401 3.2372 6.12264 3.00545 6.32739C2.77145 6.53214 2.74783 6.88764 2.95258 7.12051L4.49945 8.88901L2.9312 10.905C2.73995 11.1503 2.78495 11.5035 3.02908 11.6948C3.13258 11.7746 3.2552 11.8129 3.37558 11.8129C3.5432 11.8129 3.70858 11.7386 3.81995 11.5958L5.25433 9.75076L6.89008 11.6194C7.00145 11.7476 7.1567 11.8129 7.31308 11.8129C7.4447 11.8129 7.57633 11.7668 7.6832 11.6734C7.9172 11.4686 7.94083 11.1131 7.73608 10.8803Z" fill="#FAFAFA"/>
</svg>
