<svg width="14" height="15" viewBox="0 0 14 15" fill="none" xmlns="http://www.w3.org/2000/svg">
<path d="M13.2951 11.9223H9.70492C9.55191 11.4201 9.26229 11.0086 8.83607 10.688C8.40984 10.3674 7.91803 10.2072 7.36066 10.2072C6.81421 10.2072 6.32787 10.3674 5.90164 10.688C5.47541 11.0086 5.18579 11.4147 5.03279 11.9063V11.9223H0.704918C0.508197 11.9223 0.338798 11.9918 0.196721 12.1307C0.0655738 12.2589 0 12.4139 0 12.5956C0 12.7879 0.0655738 12.9536 0.196721 13.0925C0.338798 13.2207 0.508197 13.2848 0.704918 13.2848H5.03279C5.18579 13.7871 5.47541 14.1985 5.90164 14.5191C6.32787 14.8397 6.81421 15 7.36066 15C7.91803 15 8.40984 14.8397 8.83607 14.5191C9.26229 14.1985 9.54645 13.7924 9.68852 13.3009L9.70492 13.2848H13.2951C13.4918 13.2848 13.6557 13.2207 13.7869 13.0925C13.929 12.9536 14 12.7879 14 12.5956C14 12.4139 13.929 12.2589 13.7869 12.1307C13.6557 11.9918 13.4918 11.9223 13.2951 11.9223ZM7.36066 13.6215C7.06557 13.6215 6.81421 13.5253 6.60656 13.3329C6.40984 13.1299 6.31147 12.8841 6.31147 12.5956C6.31147 12.3177 6.40984 12.0773 6.60656 11.8742C6.81421 11.6712 7.06557 11.5697 7.36066 11.5697C7.64481 11.5697 7.88525 11.6658 8.08197 11.8582C8.28962 12.0506 8.39891 12.2803 8.40984 12.5475C8.40984 12.5582 8.40437 12.5688 8.39344 12.5795C8.39344 12.5902 8.39344 12.5956 8.39344 12.5956C8.39344 12.6062 8.39344 12.6169 8.39344 12.6276C8.40437 12.6383 8.40984 12.6436 8.40984 12.6436C8.39891 12.9215 8.28962 13.1566 8.08197 13.349C7.88525 13.5306 7.64481 13.6215 7.36066 13.6215ZM13.2951 6.81874H5.65574C5.50273 6.31648 5.21311 5.90506 4.78689 5.58446C4.36066 5.26387 3.87432 5.10358 3.32787 5.10358C2.78142 5.10358 2.29508 5.26387 1.86885 5.58446C1.44262 5.90506 1.15301 6.31114 1 6.80271V6.81874H0.704918C0.508197 6.81874 0.338798 6.8882 0.196721 7.02713C0.0655738 7.15536 0 7.31032 0 7.49198C0 7.68434 0.0655738 7.84998 0.196721 7.9889C0.338798 8.11714 0.508197 8.18126 0.704918 8.18126H1C1.15301 8.68352 1.44262 9.09494 1.86885 9.41554C2.29508 9.73613 2.78142 9.89642 3.32787 9.89642C3.87432 9.89642 4.36066 9.73613 4.78689 9.41554C5.21311 9.09494 5.50273 8.68886 5.65574 8.19729V8.18126H13.2951C13.4918 8.18126 13.6557 8.11714 13.7869 7.9889C13.929 7.84998 14 7.68434 14 7.49198C14 7.31032 13.929 7.15536 13.7869 7.02713C13.6557 6.8882 13.4918 6.81874 13.2951 6.81874ZM3.32787 8.51788C3.03279 8.51788 2.78142 8.4217 2.57377 8.22935C2.37705 8.02631 2.27869 7.78052 2.27869 7.49198C2.27869 7.21414 2.37705 6.97369 2.57377 6.77065C2.78142 6.56761 3.03279 6.46609 3.32787 6.46609C3.54645 6.46609 3.74317 6.53021 3.91803 6.65845C4.10383 6.78668 4.23497 6.94698 4.31148 7.13933V7.15536C4.27869 7.19811 4.25137 7.25154 4.22951 7.31566C4.20765 7.36909 4.19672 7.42787 4.19672 7.49198C4.19672 7.5561 4.20765 7.62022 4.22951 7.68434C4.25137 7.73777 4.27869 7.7912 4.31148 7.84464C4.23497 8.04768 4.10929 8.21332 3.93443 8.34155C3.75956 8.4591 3.55738 8.51788 3.32787 8.51788ZM0.704918 3.07768H7.11475C7.26776 3.57994 7.55738 3.99137 7.98361 4.31196C8.40984 4.63255 8.89617 4.79285 9.44262 4.79285C10 4.79285 10.4918 4.63255 10.918 4.31196C11.3443 3.99137 11.6284 3.58529 11.7705 3.09371L11.7869 3.07768H13.2951C13.4918 3.07768 13.6557 3.01356 13.7869 2.88533C13.929 2.7464 14 2.58076 14 2.38841C14 2.20674 13.929 2.05179 13.7869 1.92355C13.6557 1.78463 13.4918 1.71517 13.2951 1.71517H11.7869C11.6339 1.21291 11.3443 0.80148 10.918 0.480888C10.4918 0.160296 10 0 9.44262 0C8.89617 0 8.40984 0.160296 7.98361 0.480888C7.55738 0.80148 7.26776 1.20756 7.11475 1.69914V1.71517H0.704918C0.508197 1.71517 0.338798 1.78463 0.196721 1.92355C0.0655738 2.05179 0 2.20674 0 2.38841C0 2.58076 0.0655738 2.7464 0.196721 2.88533C0.338798 3.01356 0.508197 3.07768 0.704918 3.07768ZM9.44262 1.36252C9.7377 1.36252 9.98361 1.46404 10.1803 1.66708C10.388 1.87012 10.4918 2.11056 10.4918 2.38841C10.4918 2.67694 10.388 2.92273 10.1803 3.12577C9.98361 3.31813 9.7377 3.4143 9.44262 3.4143C9.15847 3.4143 8.91257 3.31813 8.70492 3.12577C8.49727 2.92273 8.39344 2.67694 8.39344 2.38841C8.39344 2.11056 8.49727 1.87012 8.70492 1.66708C8.91257 1.46404 9.15847 1.36252 9.44262 1.36252Z" fill="white"/>
</svg>
