<svg width="7" height="4" viewBox="0 0 7 4" fill="none" xmlns="http://www.w3.org/2000/svg">
<path d="M3.49692 2.79544L6.147 0.14709C6.19332 0.100482 6.24842 0.0634888 6.30913 0.0382434C6.36984 0.0129981 6.43496 0 6.50073 0C6.56649 0 6.63161 0.0129981 6.69232 0.0382434C6.75303 0.0634888 6.80813 0.100482 6.85445 0.14709C6.94771 0.241419 7 0.36862 7 0.501153C7 0.633686 6.94771 0.760887 6.85445 0.855215L3.8516 3.85478C3.76042 3.94527 3.63783 3.99724 3.50929 3.99989C3.38074 4.00254 3.25611 3.95568 3.16126 3.86902L0.13749 0.857114C0.0477068 0.762595 -0.00160464 0.636845 3.98485e-05 0.506598C0.00168434 0.376351 0.054155 0.251882 0.146296 0.159653C0.238437 0.0674234 0.362981 0.0147092 0.493449 0.0127179C0.623916 0.0107266 0.750016 0.0596155 0.844939 0.14899L3.49692 2.79544Z" fill="#56606D"/>
</svg>
