<svg width="35" height="35" viewBox="0 0 35 35" fill="none" xmlns="http://www.w3.org/2000/svg">
<circle cx="17.5" cy="17.5" r="17.5" fill="#F89C48"/>
<path d="M26 17.983C26.0092 22.9417 21.9652 26.9965 17.0065 27C14.8649 27.0015 12.8976 26.255 11.3517 25.0073C10.9497 24.6828 10.9197 24.0804 11.285 23.7151L11.6938 23.3062C12.0063 22.9938 12.505 22.9596 12.8512 23.2342C13.9901 24.138 15.4316 24.6774 17 24.6774C20.6909 24.6774 23.6774 21.6904 23.6774 18C23.6774 14.3091 20.6903 11.3226 17 11.3226C15.2285 11.3226 13.6196 12.011 12.4249 13.1346L14.2668 14.9765C14.6326 15.3423 14.3736 15.9678 13.8563 15.9678H8.58064C8.25995 15.9678 8 15.7078 8 15.3871V10.1115C8 9.59418 8.62543 9.33511 8.99123 9.70088L10.783 11.4926C12.3987 9.94849 14.5886 9 17 9C21.9649 9 25.9908 13.0202 26 17.983ZM19.4346 20.8421L19.7911 20.3838C20.0864 20.004 20.018 19.4568 19.6383 19.1615L18.1613 18.0127V14.2258C18.1613 13.7448 17.7713 13.3548 17.2903 13.3548H16.7097C16.2286 13.3548 15.8387 13.7448 15.8387 14.2258V19.1486L18.2124 20.9949C18.5921 21.2902 19.1393 21.2218 19.4346 20.8421Z" fill="white"/>
</svg>
