<svg width="36" height="36" viewBox="0 0 36 36" fill="none" xmlns="http://www.w3.org/2000/svg">
<path d="M17 0.577351C17.6188 0.220085 18.3812 0.220085 19 0.57735L32.5885 8.42265C33.2073 8.77991 33.5885 9.44017 33.5885 10.1547V25.8453C33.5885 26.5598 33.2073 27.2201 32.5885 27.5774L19 35.4226C18.3812 35.7799 17.6188 35.7799 17 35.4226L3.41154 27.5774C2.79274 27.2201 2.41154 26.5598 2.41154 25.8453V10.1547C2.41154 9.44017 2.79274 8.77991 3.41154 8.42265L17 0.577351Z" fill="#5667F5"/>
<path d="M17.8884 21.8468L19.6304 20.7672L18.9902 19.7347C19.3183 19.4038 19.5953 19.0191 19.8075 18.5922L20.9928 18.8695L21.4588 16.8727L20.274 16.5954C20.273 16.1239 20.197 15.6584 20.0468 15.2114L21.0823 14.5693L20.0017 12.8282L18.9666 13.4699C18.633 13.1383 18.2496 12.862 17.8271 12.6531L18.1049 11.4676L16.1087 11L15.8322 12.182C15.3491 12.183 14.8824 12.2628 14.4452 12.4079L13.805 11.3766L12.0636 12.4571L12.7032 13.4879C12.3751 13.819 12.0979 14.2033 11.8857 14.6303L10.7018 14.3525L10.2336 16.3494L11.4192 16.6276C11.4197 17.0991 11.496 17.5646 11.6464 18.0108L10.6106 18.6527L11.6905 20.3953L12.7268 19.7531C13.0599 20.0844 13.4428 20.3608 13.865 20.5705L13.5872 21.7561L15.5835 22.2237L15.8608 21.0404C16.3435 21.0394 16.8106 20.9593 17.2478 20.8142L17.8884 21.8468ZM13.5298 16.069C13.7836 14.9869 14.7348 14.2309 15.8434 14.2309C16.0259 14.2309 16.2098 14.2519 16.3898 14.2939C17.009 14.4386 17.5337 14.8168 17.8688 15.356C18.2041 15.8956 18.3088 16.5342 18.1636 17.1534C17.9098 18.2353 16.9581 18.9914 15.8494 18.9914C15.667 18.9914 15.4835 18.9699 15.3031 18.9279C14.6844 18.784 14.1597 18.4056 13.8241 17.866C13.4888 17.3261 13.3847 16.6877 13.5298 16.069ZM24.8174 23.1702L25.2688 22.8904L24.4594 21.5831L24.0064 21.8634C23.8783 21.7503 23.7396 21.6501 23.5895 21.5631L23.7112 21.0456L22.2141 20.6942L22.094 21.2073C21.9188 21.2178 21.7486 21.2458 21.5824 21.2899L21.3051 20.8435L19.9987 21.6544L20.2721 22.0938C20.1585 22.2238 20.0609 22.368 19.9727 22.5201L19.4623 22.4016L19.111 23.8981L19.6275 24.0188C19.6385 24.1909 19.6655 24.3592 19.7102 24.5263L19.2603 24.8056L20.0711 26.112L20.5205 25.8327C20.6507 25.9473 20.7898 26.0468 20.9389 26.133L20.8178 26.6495L22.3149 27L22.4345 26.4874C22.6097 26.4763 22.7799 26.4494 22.946 26.4053L23.2233 26.8522L24.5297 26.0419L24.2564 25.6014C24.371 25.4714 24.4686 25.3272 24.5556 25.1751L25.0662 25.2941L25.4175 23.7971L24.9004 23.6764C24.8889 23.5031 24.8619 23.3348 24.8174 23.1702ZM23.3523 24.1027C23.2136 24.6933 22.612 25.0747 22.0099 24.9345C21.7205 24.8659 21.4733 24.6893 21.3166 24.436C21.1589 24.1837 21.1108 23.8844 21.1779 23.5931C21.2971 23.0851 21.7441 22.7292 22.263 22.7292C22.3491 22.7292 22.4341 22.7403 22.5183 22.7593C23.1191 22.9024 23.4925 23.5031 23.3523 24.1027ZM27.1663 18.1662L27.868 18.3302L28.1023 17.3324L27.4026 17.1687C27.4075 16.8849 27.361 16.6037 27.2654 16.3371L27.8771 15.9572L27.336 15.0865L26.7248 15.4657C26.5276 15.2628 26.2963 15.0961 26.0401 14.9742L26.2043 14.2747L25.2062 14.0405L25.043 14.7384C25.0309 14.7384 25.018 14.7365 25.0055 14.7365C24.7267 14.7365 24.4579 14.7841 24.2072 14.8724L23.8322 14.266L22.9608 14.8055L23.3401 15.4187C23.14 15.6138 22.9728 15.8428 22.8502 16.1029L22.1479 15.9387L21.9147 16.9367L22.6134 17.1001C22.6084 17.3841 22.6549 17.6649 22.7505 17.932L22.1399 18.3114L22.681 19.1816L23.2911 18.803C23.4888 19.0058 23.7196 19.1728 23.9758 19.2947L23.8126 19.9945L24.8097 20.2288L24.9738 19.53C24.9863 19.53 24.9988 19.532 25.0109 19.532C25.2891 19.532 25.5575 19.4844 25.8087 19.3963L26.1846 20.0035L27.0549 19.4618L26.6756 18.8499C26.876 18.6557 27.0427 18.426 27.1663 18.1662ZM23.6716 16.8218C23.8188 16.1972 24.3664 15.7615 25.0061 15.7615C25.1117 15.7615 25.2178 15.7738 25.3215 15.7978C25.6788 15.8819 25.9811 16.0991 26.1743 16.4104C26.3675 16.7215 26.4286 17.0899 26.3445 17.4472C26.1743 18.1735 25.4325 18.644 24.6948 18.4691C24.3384 18.3855 24.0352 18.1678 23.8419 17.8567C23.6486 17.5455 23.5886 17.178 23.6716 16.8218Z" fill="white"/>
</svg>
