<svg width="35" height="35" viewBox="0 0 35 35" fill="none" xmlns="http://www.w3.org/2000/svg">
<circle cx="17.5" cy="17.5" r="17.5" fill="#ECEFFF"/>
<rect x="9" y="10" width="16" height="16" rx="2" fill="#5667F5"/>
<path d="M16.7198 22.5055C16.1744 22.4255 15.6871 22.2146 15.258 21.8727C14.8362 21.5309 14.5344 21.04 14.3525 20.4L15.6071 19.8873C15.6798 20.1782 15.8144 20.44 16.0107 20.6727C16.2071 20.8982 16.4434 21.0545 16.7198 21.1418V19.0691L16.6216 19.0255C16.3525 18.9236 16.098 18.8036 15.858 18.6655C15.6253 18.5273 15.418 18.3673 15.2362 18.1855C15.0616 18.0036 14.9198 17.8 14.8107 17.5746C14.7089 17.3418 14.658 17.0836 14.658 16.8C14.658 16.5382 14.7053 16.2909 14.7998 16.0582C14.8944 15.8255 15.0289 15.6182 15.2034 15.4364C15.3853 15.2545 15.6034 15.1055 15.858 14.9891C16.1125 14.8655 16.3998 14.7855 16.7198 14.7491V13.8109H17.6907V14.7709C17.9816 14.8145 18.2325 14.8909 18.4434 15C18.6616 15.1091 18.8471 15.2364 18.9998 15.3818C19.1598 15.52 19.2871 15.6691 19.3816 15.8291C19.4762 15.9891 19.5489 16.1455 19.5998 16.2982L18.378 16.8436C18.3271 16.6982 18.2471 16.56 18.138 16.4291C18.0289 16.2982 17.8798 16.1927 17.6907 16.1127V18.0655C18.0034 18.1964 18.2871 18.3309 18.5416 18.4691C18.7962 18.6073 19.0144 18.7636 19.1962 18.9382C19.378 19.1127 19.5162 19.3127 19.6107 19.5382C19.7053 19.7564 19.7525 20.0109 19.7525 20.3018C19.7525 20.6291 19.6944 20.92 19.578 21.1745C19.4689 21.4291 19.3198 21.6473 19.1307 21.8291C18.9416 22.0109 18.7198 22.1564 18.4653 22.2655C18.218 22.3745 17.9598 22.4509 17.6907 22.4945V23.4545H16.7198V22.5055ZM15.9998 16.8C15.9998 16.9745 16.0544 17.1273 16.1634 17.2582C16.2798 17.3818 16.4653 17.5091 16.7198 17.64V16.0473C16.5016 16.1055 16.3271 16.2 16.1962 16.3309C16.0653 16.4618 15.9998 16.6182 15.9998 16.8ZM18.3562 20.3127C18.3562 20.1236 18.3053 19.9673 18.2034 19.8436C18.1016 19.72 17.9307 19.5964 17.6907 19.4727V21.1418C17.8871 21.0764 18.0471 20.9745 18.1707 20.8364C18.2944 20.6909 18.3562 20.5164 18.3562 20.3127Z" fill="white"/>
</svg>
