<svg width="70" height="70" viewBox="0 0 70 70" fill="none" xmlns="http://www.w3.org/2000/svg">
<circle cx="35" cy="35" r="35" fill="#5667F5"/>
<path d="M46.2 32.375C48.41 32.375 50.2 30.557 50.2 28.3125C50.2 26.068 48.41 24.25 46.2 24.25C43.99 24.25 42.2 26.068 42.2 28.3125C42.2 30.557 43.99 32.375 46.2 32.375ZM46.2 26.6875C47.08 26.6875 47.8 27.4187 47.8 28.3125C47.8 29.2063 47.08 29.9375 46.2 29.9375C45.32 29.9375 44.6 29.2063 44.6 28.3125C44.6 27.4187 45.32 26.6875 46.2 26.6875ZM23.8 32.375C26.01 32.375 27.8 30.557 27.8 28.3125C27.8 26.068 26.01 24.25 23.8 24.25C21.59 24.25 19.8 26.068 19.8 28.3125C19.8 30.557 21.59 32.375 23.8 32.375ZM23.8 26.6875C24.68 26.6875 25.4 27.4187 25.4 28.3125C25.4 29.2063 24.68 29.9375 23.8 29.9375C22.92 29.9375 22.2 29.2063 22.2 28.3125C22.2 27.4187 22.92 26.6875 23.8 26.6875ZM43.62 37.3973C42.245 35.3254 39.585 34.5535 37.23 35.2797C36.52 35.498 35.775 35.6199 34.995 35.6199C34.215 35.6199 33.47 35.498 32.76 35.2797C30.405 34.5535 27.745 35.3203 26.37 37.3973C25.75 38.3316 25.39 39.4539 25.39 40.6625V42.9375C25.39 44.2832 26.465 45.375 27.79 45.375H42.19C43.515 45.375 44.59 44.2832 44.59 42.9375V40.6625C44.6 39.4539 44.24 38.3316 43.62 37.3973ZM42.2 42.9375H27.8V40.6625C27.8 38.8141 29.26 37.3008 31.07 37.25C32.345 37.7883 33.665 38.0625 35 38.0625C36.335 38.0625 37.655 37.7883 38.93 37.25C40.74 37.3008 42.2 38.809 42.2 40.6625V42.9375ZM46.8 34H45.6C44.735 34 43.93 34.2691 43.26 34.7262C43.93 35.2391 44.52 35.8535 44.98 36.5645C45.175 36.4934 45.38 36.4375 45.595 36.4375H46.795C47.785 36.4375 48.595 37.2602 48.595 38.2656C48.595 38.9359 49.135 39.4844 49.795 39.4844C50.455 39.4844 50.995 38.9359 50.995 38.2656C51 35.9145 49.115 34 46.8 34ZM35 34C38.095 34 40.6 31.4559 40.6 28.3125C40.6 25.1691 38.095 22.625 35 22.625C31.905 22.625 29.4 25.1691 29.4 28.3125C29.4 31.4559 31.905 34 35 34ZM35 25.0625C36.765 25.0625 38.2 26.5199 38.2 28.3125C38.2 30.1051 36.765 31.5625 35 31.5625C33.235 31.5625 31.8 30.1051 31.8 28.3125C31.8 26.5199 33.235 25.0625 35 25.0625ZM26.74 34.7262C26.07 34.2691 25.265 34 24.4 34H23.2C20.885 34 19 35.9145 19 38.2656C19 38.9359 19.54 39.4844 20.2 39.4844C20.86 39.4844 21.4 38.9359 21.4 38.2656C21.4 37.2602 22.21 36.4375 23.2 36.4375H24.4C24.62 36.4375 24.825 36.4934 25.015 36.5645C25.48 35.8535 26.07 35.2391 26.74 34.7262Z" fill="white"/>
</svg>
