<svg width="35" height="35" viewBox="0 0 35 35" fill="none" xmlns="http://www.w3.org/2000/svg">
<circle cx="17.5" cy="17.5" r="17.5" fill="#ECEFFF"/>
<path d="M20.6952 17.8036C20.1244 17.492 19.4844 17.3293 18.8342 17.3303H17.2367C16.204 17.3303 15.2136 17.7406 14.4834 18.4708C13.7531 19.201 13.3429 20.1914 13.3429 21.2241V22.4222H22.7279V21.2241C22.728 20.5239 22.5392 19.8366 22.1815 19.2346C21.8237 18.6326 21.3103 18.1383 20.6952 17.8036Z" fill="#5667F5"/>
<path d="M25.1192 16.264H23.7873C23.0378 16.263 22.3043 16.4805 21.6766 16.89C22.3942 17.3624 22.9834 18.0054 23.3913 18.7615C23.7993 19.5175 24.0132 20.363 24.0139 21.2221V21.7872H29V20.1448C28.9989 19.1159 28.5897 18.1294 27.8622 17.4019C27.1346 16.6743 26.1481 16.2651 25.1192 16.264Z" fill="#5667F5"/>
<path d="M12.2117 16.264H10.8798C9.85123 16.2654 8.86515 16.6745 8.13783 17.4019C7.41051 18.1292 7.00132 19.1153 7 20.1438V21.7862H12.051V21.2211C12.0517 20.3687 12.2623 19.5296 12.6642 18.7779C13.0661 18.0262 13.6469 17.385 14.3553 16.911C13.7205 16.488 12.9745 16.2629 12.2117 16.264Z" fill="#5667F5"/>
<path d="M24.4513 10.4283H24.4303C23.7249 10.4694 23.0622 10.7793 22.5785 11.2943C22.0947 11.8093 21.8269 12.4902 21.8301 13.1968C21.8333 13.9033 22.1073 14.5817 22.5956 15.0923C23.084 15.603 23.7496 15.9069 24.4553 15.9415H24.4762C24.8271 15.9381 25.1735 15.8618 25.4934 15.7175C25.8132 15.5731 26.0996 15.3638 26.3343 15.1029C26.8166 14.5734 27.0793 13.8801 27.0691 13.164C27.0799 12.4554 26.8113 11.7711 26.3213 11.2592C25.8314 10.7472 25.1596 10.4487 24.4513 10.4283Z" fill="#5667F5"/>
<path d="M11.5438 10.4283H11.5228C10.8175 10.4694 10.1547 10.7793 9.67098 11.2943C9.18727 11.8093 8.91944 12.4902 8.92264 13.1968C8.92583 13.9033 9.19982 14.5817 9.68817 15.0923C10.1765 15.603 10.8421 15.9069 11.5478 15.9415H11.5687C11.9197 15.9381 12.266 15.8618 12.5859 15.7175C12.9058 15.5731 13.1921 15.3638 13.4268 15.1029C13.9091 14.5734 14.1718 13.8801 14.1616 13.164C14.1724 12.4554 13.9038 11.7711 13.4139 11.2592C12.9239 10.7472 12.2521 10.4487 11.5438 10.4283Z" fill="#5667F5"/>
<path d="M18.0324 10C17.2109 10.0243 16.4325 10.3731 15.8676 10.97C15.3027 11.5669 14.9973 12.3633 15.0182 13.1849C15.0119 13.7774 15.1698 14.36 15.4746 14.8681C15.7793 15.3762 16.2188 15.7899 16.7445 16.0633C17.1442 16.2645 17.5855 16.3692 18.0329 16.3692C18.4804 16.3692 18.9216 16.2645 19.3214 16.0633C19.847 15.7899 20.2865 15.3762 20.5913 14.8681C20.896 14.36 21.054 13.7774 21.0476 13.1849C21.0686 12.3632 20.763 11.5666 20.1979 10.9696C19.6328 10.3727 18.8541 10.024 18.0324 10Z" fill="#5667F5"/>
</svg>
