<svg width="70" height="70" viewBox="0 0 70 70" fill="none" xmlns="http://www.w3.org/2000/svg">
<circle cx="35" cy="35" r="35" fill="#31CC96"/>
<path d="M50.85 30.1809L49.895 29.2059C49.695 28.9977 49.365 28.9977 49.165 29.2059L44.01 34.4719L41.64 32.0496C41.44 31.8414 41.11 31.8414 40.91 32.0496L39.95 33.0246C39.75 33.2328 39.75 33.5629 39.95 33.7711L43.64 37.5441C43.84 37.7523 44.17 37.7523 44.37 37.5441L50.85 30.9273C51.05 30.7242 51.05 30.3891 50.85 30.1809ZM30.2 36.625C34.175 36.625 37.4 33.3496 37.4 29.3125C37.4 25.2754 34.175 22 30.2 22C26.225 22 23 25.2754 23 29.3125C23 33.3496 26.225 36.625 30.2 36.625ZM30.2 24.4375C32.845 24.4375 35 26.6262 35 29.3125C35 31.9988 32.845 34.1875 30.2 34.1875C27.555 34.1875 25.4 31.9988 25.4 29.3125C25.4 26.6262 27.555 24.4375 30.2 24.4375ZM34.68 37.4375C33.24 37.4375 32.56 38.25 30.2 38.25C27.845 38.25 27.16 37.4375 25.72 37.4375C22.01 37.4375 19 40.4945 19 44.2625V45.5625C19 46.9082 20.075 48 21.4 48H39C40.325 48 41.4 46.9082 41.4 45.5625V44.2625C41.4 40.4945 38.39 37.4375 34.68 37.4375ZM39 45.5625H21.4V44.2625C21.4 41.8453 23.34 39.875 25.72 39.875C26.45 39.875 27.635 40.6875 30.2 40.6875C32.785 40.6875 33.945 39.875 34.68 39.875C37.06 39.875 39 41.8453 39 44.2625V45.5625Z" fill="white"/>
</svg>
