<svg width="70" height="70" viewBox="0 0 70 70" fill="none" xmlns="http://www.w3.org/2000/svg">
<circle cx="35" cy="35" r="35" fill="#FF598B"/>
<path d="M34.9999 24.4375C38.0899 24.4375 40.5999 26.9867 40.5999 30.125C40.5999 31.5113 40.0899 32.7656 39.2749 33.7559L40.4799 34.7105L41.1599 35.2539C42.2949 33.8473 42.9999 32.0801 42.9999 30.125C42.9999 25.6359 39.4199 22 34.9999 22C32.3749 22 30.0649 23.3 28.6099 25.2855L30.4949 26.7836C31.5149 25.3668 33.1449 24.4375 34.9999 24.4375ZM50.6999 45.918L42.9749 39.7836L38.9999 36.6301L24.7799 25.3363L24.6699 25.25L20.7999 22.1777C20.4549 21.8984 19.9499 21.9543 19.6749 22.3047L19.1749 22.9395C18.8999 23.2898 18.9549 23.8027 19.2999 24.082L21.5149 25.8391L23.4649 27.3879L49.1999 47.8223C49.5449 48.1016 50.0499 48.0457 50.3249 47.6953L50.8249 47.0605C51.0999 46.7102 51.0449 46.1973 50.6999 45.918ZM24.5999 45.5574C24.5999 44.4707 25.0149 43.4551 25.7699 42.6883C26.5249 41.9215 27.5299 41.5 28.5999 41.5H30.4399C30.6949 41.5 31.0149 41.566 31.4399 41.7133C32.5899 42.1094 33.7899 42.3125 34.9999 42.3125C35.9649 42.3125 36.9099 42.15 37.8449 41.8961L35.2699 39.8496C35.1799 39.8547 35.0949 39.8699 35.0049 39.8699C34.0299 39.8699 33.0899 39.7023 32.2149 39.4027C31.6399 39.2047 31.0499 39.0574 30.4449 39.0574H28.5999C25.0649 39.0574 22.1999 41.9672 22.1999 45.5574V46.3699C22.1999 47.2687 22.9149 47.9949 23.7999 47.9949H45.5299L42.4599 45.5574H24.5999Z" fill="white"/>
</svg>
