<svg width="70" height="70" viewBox="0 0 70 70" fill="none" xmlns="http://www.w3.org/2000/svg">
<circle cx="35" cy="35" r="35" fill="#58CBEF"/>
<path d="M48.2 33.375C50.41 33.375 52.2 31.557 52.2 29.3125C52.2 27.068 50.41 25.25 48.2 25.25C45.99 25.25 44.2 27.068 44.2 29.3125C44.2 31.557 45.99 33.375 48.2 33.375ZM48.2 27.6875C49.08 27.6875 49.8 28.4187 49.8 29.3125C49.8 30.2063 49.08 30.9375 48.2 30.9375C47.32 30.9375 46.6 30.2063 46.6 29.3125C46.6 28.4187 47.32 27.6875 48.2 27.6875ZM25.8 33.375C28.01 33.375 29.8 31.557 29.8 29.3125C29.8 27.068 28.01 25.25 25.8 25.25C23.59 25.25 21.8 27.068 21.8 29.3125C21.8 31.557 23.59 33.375 25.8 33.375ZM25.8 27.6875C26.68 27.6875 27.4 28.4187 27.4 29.3125C27.4 30.2063 26.68 30.9375 25.8 30.9375C24.92 30.9375 24.2 30.2063 24.2 29.3125C24.2 28.4187 24.92 27.6875 25.8 27.6875ZM45.62 38.3973C44.245 36.3254 41.585 35.5535 39.23 36.2797C38.52 36.498 37.775 36.6199 36.995 36.6199C36.215 36.6199 35.47 36.498 34.76 36.2797C32.405 35.5535 29.745 36.3203 28.37 38.3973C27.75 39.3316 27.39 40.4539 27.39 41.6625V43.9375C27.39 45.2832 28.465 46.375 29.79 46.375H44.19C45.515 46.375 46.59 45.2832 46.59 43.9375V41.6625C46.6 40.4539 46.24 39.3316 45.62 38.3973ZM44.2 43.9375H29.8V41.6625C29.8 39.8141 31.26 38.3008 33.07 38.25C34.345 38.7883 35.665 39.0625 37 39.0625C38.335 39.0625 39.655 38.7883 40.93 38.25C42.74 38.3008 44.2 39.809 44.2 41.6625V43.9375ZM48.8 35H47.6C46.735 35 45.93 35.2691 45.26 35.7262C45.93 36.2391 46.52 36.8535 46.98 37.5645C47.175 37.4934 47.38 37.4375 47.595 37.4375H48.795C49.785 37.4375 50.595 38.2602 50.595 39.2656C50.595 39.9359 51.135 40.4844 51.795 40.4844C52.455 40.4844 52.995 39.9359 52.995 39.2656C53 36.9145 51.115 35 48.8 35ZM37 35C40.095 35 42.6 32.4559 42.6 29.3125C42.6 26.1691 40.095 23.625 37 23.625C33.905 23.625 31.4 26.1691 31.4 29.3125C31.4 32.4559 33.905 35 37 35ZM37 26.0625C38.765 26.0625 40.2 27.5199 40.2 29.3125C40.2 31.1051 38.765 32.5625 37 32.5625C35.235 32.5625 33.8 31.1051 33.8 29.3125C33.8 27.5199 35.235 26.0625 37 26.0625ZM28.74 35.7262C28.07 35.2691 27.265 35 26.4 35H25.2C22.885 35 21 36.9145 21 39.2656C21 39.9359 21.54 40.4844 22.2 40.4844C22.86 40.4844 23.4 39.9359 23.4 39.2656C23.4 38.2602 24.21 37.4375 25.2 37.4375H26.4C26.62 37.4375 26.825 37.4934 27.015 37.5645C27.48 36.8535 28.07 36.2391 28.74 35.7262Z" fill="white"/>
</svg>
