<svg width="35" height="35" viewBox="0 0 35 35" fill="none" xmlns="http://www.w3.org/2000/svg">
<circle cx="17.5" cy="17.5" r="17.5" fill="#FF598B"/>
<path d="M26 13.7432V12.8333C26 12.3732 25.6418 12 25.2 12H10.8C10.3582 12 10 12.3732 10 12.8333V13.7432C10.465 13.9154 10.8 14.3732 10.8 14.9167C10.8 15.4602 10.465 15.918 10 16.0901V18.6667H26V16.0901C25.535 15.918 25.2 15.4602 25.2 14.9167C25.2 14.3732 25.535 13.9154 26 13.7432ZM15.6 17H14V13.6667H15.6V17ZM18.8 17H17.2V13.6667H18.8V17ZM22 17H20.4V13.6667H22V17ZM10 22H11.6V21.3055C11.6 21.0753 11.779 20.8888 12 20.8888C12.221 20.8888 12.4 21.0753 12.4 21.3055V22H15.6V21.3055C15.6 21.0753 15.779 20.8888 16 20.8888C16.221 20.8888 16.4 21.0753 16.4 21.3055V22H19.6V21.3055C19.6 21.0753 19.779 20.8888 20 20.8888C20.221 20.8888 20.4 21.0753 20.4 21.3055V22H23.6V21.3055C23.6 21.0753 23.779 20.8888 24 20.8888C24.221 20.8888 24.4 21.0753 24.4 21.3055V22H26V19.5H10V22Z" fill="white"/>
</svg>
