<svg width="22" height="13" viewBox="0 0 22 13" fill="none" xmlns="http://www.w3.org/2000/svg">
<path d="M13.6952 7.80359C13.1245 7.49203 12.4845 7.32927 11.8342 7.33034H10.2367C9.20405 7.33034 8.21366 7.74057 7.48343 8.4708C6.7532 9.20103 6.34296 10.1914 6.34296 11.2241V12.4222H15.728V11.2241C15.7281 10.5239 15.5393 9.83657 15.1815 9.2346C14.8238 8.63262 14.3103 8.13827 13.6952 7.80359Z" fill="white"/>
<path d="M18.1192 6.26403H16.7873C16.0378 6.26297 15.3043 6.48051 14.6766 6.89001C15.3942 7.36235 15.9834 8.00538 16.3913 8.76145C16.7993 9.51753 17.0132 10.363 17.0139 11.2221V11.7872H22V10.1448C21.9989 9.11591 21.5897 8.12943 20.8622 7.40186C20.1346 6.6743 19.1481 6.26508 18.1192 6.26403Z" fill="white"/>
<path d="M5.2117 6.26403H3.87982C2.85123 6.26535 1.86515 6.67454 1.13783 7.40186C0.410511 8.12919 0.0013209 9.11525 0 10.1438L0 11.7862H5.05096V11.2211C5.05171 10.3687 5.26233 9.52964 5.66421 8.77794C6.0661 8.02623 6.64688 7.38504 7.35529 6.91098C6.72051 6.48798 5.9745 6.26285 5.2117 6.26403Z" fill="white"/>
<path d="M17.4512 0.428322H17.4302C16.7249 0.469372 16.0621 0.779316 15.5784 1.29433C15.0947 1.80934 14.8268 2.49022 14.83 3.19676C14.8332 3.90331 15.1072 4.58173 15.5956 5.09234C16.0839 5.60295 16.7495 5.90688 17.4552 5.94155H17.4762C17.8271 5.93815 18.1735 5.86184 18.4933 5.71746C18.8132 5.57309 19.0995 5.3638 19.3342 5.10288C19.8165 4.57337 20.0792 3.88014 20.069 3.16396C20.0798 2.45542 19.8112 1.77113 19.3213 1.25916C18.8314 0.747186 18.1595 0.448711 17.4512 0.428322Z" fill="white"/>
<path d="M4.54379 0.428322H4.52282C3.81746 0.469372 3.15469 0.779316 2.67098 1.29433C2.18727 1.80934 1.91944 2.49022 1.92264 3.19676C1.92583 3.90331 2.19982 4.58173 2.68817 5.09234C3.17653 5.60295 3.84208 5.90688 4.54778 5.94155H4.56875C4.91966 5.93815 5.26604 5.86184 5.5859 5.71746C5.90576 5.57309 6.19211 5.3638 6.42679 5.10288C6.90912 4.57337 7.17184 3.88014 7.16161 3.16396C7.17241 2.45542 6.90378 1.77113 6.41385 1.25916C5.92393 0.747186 5.25211 0.448711 4.54379 0.428322Z" fill="white"/>
<path d="M11.0325 0C10.211 0.0242933 9.43258 0.373079 8.86766 0.969998C8.30273 1.56692 7.99733 2.36334 8.01828 3.18493C8.01194 3.77737 8.1699 4.35999 8.47462 4.86809C8.77934 5.3762 9.21891 5.78992 9.74452 6.06334C10.1442 6.26448 10.5855 6.36924 11.033 6.36924C11.4805 6.36924 11.9217 6.26448 12.3214 6.06334C12.847 5.78992 13.2866 5.3762 13.5913 4.86809C13.8961 4.35999 14.054 3.77737 14.0477 3.18493C14.0686 2.36317 13.7631 1.56659 13.1979 0.969647C12.6328 0.3727 11.8542 0.0240344 11.0325 0Z" fill="white"/>
</svg>
