<svg width="22" height="20" viewBox="0 0 22 20" fill="none" xmlns="http://www.w3.org/2000/svg">
<path d="M18.4071 0L7.9848 4.1687V12.1136L18.4071 16.2823V0Z" fill="white"/>
<path d="M6.99963 4.32211H6.15991V11.9493H6.99963V4.32211Z" fill="white"/>
<path d="M5.17975 11.77V4.1428H1.79299C1.31746 4.1428 0.861405 4.33171 0.525154 4.66796C0.188903 5.00421 0 5.46027 0 5.9358V9.98496C0 10.4605 0.188903 10.9165 0.525154 11.2528C0.861405 11.589 1.31746 11.778 1.79299 11.778L5.17975 11.77Z" fill="white"/>
<path d="M22 7.99375C21.9992 7.32296 21.7324 6.67989 21.2581 6.20557C20.7838 5.73125 20.1407 5.46443 19.4699 5.46364H19.3922V10.5239H19.4699C20.1407 10.5231 20.7838 10.2563 21.2581 9.78194C21.7324 9.30762 21.9992 8.66453 22 7.99375Z" fill="white"/>
<path d="M4.73947 19.1939C5.00617 19.1939 5.26928 19.1323 5.50831 19.014C5.74734 18.8957 5.95586 18.7239 6.11767 18.5119C6.27948 18.2998 6.3902 18.0534 6.44123 17.7916C6.49227 17.5298 6.48224 17.2598 6.41193 17.0025L5.29231 12.9394H1.78901H1.68939L3.06402 17.9269C3.16697 18.2919 3.38639 18.6132 3.68885 18.842C3.99132 19.0707 4.36025 19.1943 4.73947 19.1939Z" fill="white"/>
</svg>
