<svg width="26" height="18" viewBox="0 0 26 18" fill="none" xmlns="http://www.w3.org/2000/svg">
<path d="M1.11839e-07 1.29212C1.41649e-07 0.951132 0.135609 0.624104 0.376995 0.382986C0.618382 0.141868 0.945773 0.00641026 1.28714 0.00641029L11.5843 0.00641119C11.7633 -0.0115334 11.944 0.00819173 12.1149 0.0643126C12.2858 0.120434 12.443 0.211703 12.5764 0.332239C12.7097 0.452775 12.8164 0.599901 12.8893 0.764125C12.9623 0.928348 13 1.10603 13 1.2857C13 1.46537 12.9623 1.64305 12.8893 1.80727C12.8164 1.97149 12.7097 2.11862 12.5764 2.23915C12.443 2.35969 12.2858 2.45096 12.1149 2.50708C11.944 2.5632 11.7633 2.58293 11.5843 2.56498L1.28714 2.56498C0.947991 2.565 0.622538 2.43131 0.381517 2.19296C0.140498 1.95462 0.0033923 1.63088 1.11839e-07 1.29212Z" fill="#2D405A"/>
<path d="M2.01919e-06 9.00636C2.049e-06 8.66536 0.136284 8.33834 0.37887 8.09722C0.621456 7.8561 0.950474 7.72064 1.29354 7.72064L24.5773 7.72064C24.7571 7.7027 24.9388 7.72242 25.1105 7.77854C25.2822 7.83466 25.4402 7.92594 25.5743 8.04647C25.7083 8.16701 25.8155 8.31413 25.8888 8.47836C25.9621 8.64258 26 8.82026 26 8.99993C26 9.1796 25.9621 9.35728 25.8888 9.5215C25.8155 9.68573 25.7083 9.83285 25.5743 9.95339C25.4402 10.0739 25.2822 10.1652 25.1105 10.2213C24.9388 10.2774 24.7571 10.2972 24.5773 10.2792L1.29354 10.2792C0.952703 10.2792 0.625631 10.1455 0.383413 9.90719C0.141197 9.66885 0.00341042 9.34512 2.01919e-06 9.00636Z" fill="#2D405A"/>
<path d="M1.42979 15.435C1.24903 15.4171 1.06647 15.4368 0.893891 15.4929C0.721312 15.549 0.562544 15.6403 0.427822 15.7608C0.293101 15.8814 0.185421 16.0285 0.111723 16.1927C0.038027 16.3569 -4.9463e-05 16.5346 -4.94787e-05 16.7143C-4.94944e-05 16.894 0.0380269 17.0716 0.111723 17.2359C0.185421 17.4001 0.2931 17.5472 0.427822 17.6677C0.562544 17.7883 0.721312 17.8795 0.89389 17.9357C1.06647 17.9918 1.24903 18.0115 1.42979 17.9936L17.0298 17.9936C17.3505 17.9617 17.6478 17.8132 17.864 17.5768C18.0802 17.3404 18.2 17.033 18.2 16.7143C18.2 16.3955 18.0802 16.0881 17.864 15.8517C17.6478 15.6154 17.3505 15.4668 17.0298 15.435L1.42979 15.435Z" fill="#2D405A"/>
</svg>
