<svg width="21" height="20" viewBox="0 0 21 20" fill="none" xmlns="http://www.w3.org/2000/svg">
<path d="M14.6638 17.4717C14.9282 17.7259 14.9082 18.1575 14.6032 18.3653C13.0763 19.4091 11.2541 19.9795 9.3806 20C4.43286 20.059 0.173797 16.1595 0.00548821 11.4044C-0.158188 6.77422 3.35854 2.91077 7.95847 2.28585C8.32327 2.23612 8.64714 2.52743 8.64714 2.88182V11.6875L14.6638 17.4717Z" fill="white"/>
<path d="M19.7648 9.28282C19.4452 4.84974 15.7601 1.30728 11.1486 1.00001C10.7965 0.978117 10.5001 1.26349 10.5001 1.60267V9.90626H19.1383C19.4911 9.90626 19.7876 9.62126 19.7648 9.28282ZM20.3743 11.6875H11.2142L17.3135 17.5508C17.5451 17.7734 17.9311 17.7931 18.1701 17.576C19.7018 16.1927 20.6975 14.349 20.9931 12.3488C21.046 11.9989 20.743 11.6875 20.3743 11.6875Z" fill="white"/>
</svg>
