<svg width="22" height="22" viewBox="0 0 22 22" fill="none" xmlns="http://www.w3.org/2000/svg">
<rect width="22" height="22" rx="4" fill="white"/>
<path d="M10.615 17.195C9.86499 17.085 9.19499 16.795 8.60499 16.325C8.02499 15.855 7.60999 15.18 7.35999 14.3L9.08499 13.595C9.18499 13.995 9.36999 14.355 9.63999 14.675C9.90999 14.985 10.235 15.2 10.615 15.32V12.47L10.48 12.41C10.11 12.27 9.75999 12.105 9.42999 11.915C9.10999 11.725 8.82499 11.505 8.57499 11.255C8.33499 11.005 8.13999 10.725 7.98999 10.415C7.84999 10.095 7.77999 9.74001 7.77999 9.35001C7.77999 8.99001 7.84499 8.65001 7.97499 8.33001C8.10499 8.01001 8.28999 7.72501 8.52999 7.47501C8.77999 7.22501 9.07999 7.02001 9.42999 6.86001C9.77999 6.69001 10.175 6.58001 10.615 6.53001V5.24001H11.95V6.56001C12.35 6.62001 12.695 6.72501 12.985 6.87501C13.285 7.02501 13.54 7.20001 13.75 7.40001C13.97 7.59001 14.145 7.79501 14.275 8.01501C14.405 8.23501 14.505 8.45001 14.575 8.66001L12.895 9.41001C12.825 9.21001 12.715 9.02001 12.565 8.84001C12.415 8.66001 12.21 8.51501 11.95 8.40501V11.09C12.38 11.27 12.77 11.455 13.12 11.645C13.47 11.835 13.77 12.05 14.02 12.29C14.27 12.53 14.46 12.805 14.59 13.115C14.72 13.415 14.785 13.765 14.785 14.165C14.785 14.615 14.705 15.015 14.545 15.365C14.395 15.715 14.19 16.015 13.93 16.265C13.67 16.515 13.365 16.715 13.015 16.865C12.675 17.015 12.32 17.12 11.95 17.18V18.5H10.615V17.195ZM9.62499 9.35001C9.62499 9.59001 9.69999 9.80001 9.84999 9.98001C10.01 10.15 10.265 10.325 10.615 10.505V8.31501C10.315 8.39501 10.075 8.52501 9.89499 8.70501C9.71499 8.88501 9.62499 9.10001 9.62499 9.35001ZM12.865 14.18C12.865 13.92 12.795 13.705 12.655 13.535C12.515 13.365 12.28 13.195 11.95 13.025V15.32C12.22 15.23 12.44 15.09 12.61 14.9C12.78 14.7 12.865 14.46 12.865 14.18Z" fill="#5667F5"/>
</svg>
