<svg width="22" height="22" viewBox="0 0 22 22" fill="none" xmlns="http://www.w3.org/2000/svg">
<path d="M3.3 17.5999V21.7425L4.9665 20.7426L10.2047 17.5999H15.4C16.6133 17.5999 17.6 16.6132 17.6 15.3999V6.5999C17.6 5.3866 16.6133 4.3999 15.4 4.3999H2.2C0.9867 4.3999 0 5.3866 0 6.5999V15.3999C0 16.6132 0.9867 17.5999 2.2 17.5999H3.3ZM2.2 6.5999H15.4V15.3999H9.5953L5.5 17.8573V15.3999H2.2V6.5999Z" fill="#4F5F6F"/>
<path opacity="0.5" d="M19.7999 0H6.5999C5.3866 0 4.3999 0.9867 4.3999 2.2H17.5999C18.8132 2.2 19.7999 3.1867 19.7999 4.4V13.2C21.0132 13.2 21.9999 12.2133 21.9999 11V2.2C21.9999 0.9867 21.0132 0 19.7999 0Z" fill="#4F5F6F"/>
</svg>
