<svg width="36" height="36" viewBox="0 0 36 36" fill="none" xmlns="http://www.w3.org/2000/svg">
<path d="M17 0.577351C17.6188 0.220085 18.3812 0.220085 19 0.57735L32.5885 8.42265C33.2073 8.77991 33.5885 9.44017 33.5885 10.1547V25.8453C33.5885 26.5598 33.2073 27.2201 32.5885 27.5774L19 35.4226C18.3812 35.7799 17.6188 35.7799 17 35.4226L3.41154 27.5774C2.79274 27.2201 2.41154 26.5598 2.41154 25.8453V10.1547C2.41154 9.44017 2.79274 8.77991 3.41154 8.42265L17 0.577351Z" fill="#A80030"/>
<g clip-path="url(#clip0)">
<path d="M20.0642 18.7775C19.7129 18.7822 20.1307 18.9501 20.5894 19.0173C20.7161 18.923 20.831 18.8276 20.9335 18.7348C20.6478 18.8015 20.3571 18.803 20.0642 18.7775Z" fill="white"/>
<path d="M21.9501 18.3295C22.1593 18.0543 22.3118 17.7529 22.3655 17.4413C22.3186 17.6635 22.1921 17.8552 22.073 18.0576C21.4163 18.4517 22.0113 17.8235 22.0727 17.5848C21.3664 18.432 21.9757 18.0928 21.9501 18.3295Z" fill="white"/>
<path d="M22.6462 16.6031C22.6887 16.0001 22.5217 16.1907 22.4656 16.4209C22.5311 16.4533 22.5829 16.8459 22.6462 16.6031Z" fill="white"/>
<path d="M18.7319 8.3607C18.9194 8.39276 19.137 8.41735 19.1065 8.46003C19.3116 8.41717 19.3582 8.37766 18.7319 8.3607Z" fill="white"/>
<path d="M19.1067 8.46004L18.9741 8.48613L19.0975 8.47569L19.1067 8.46004Z" fill="white"/>
<path d="M24.9535 16.8318C24.9744 17.3733 24.7873 17.6361 24.6186 18.1012L24.3149 18.2458C24.0664 18.7057 24.339 18.5378 24.161 18.9036C23.7731 19.2324 22.9838 19.9323 22.7312 19.9962C22.5468 19.9923 22.8562 19.7888 22.8966 19.7091C22.3773 20.049 22.48 20.2193 21.6858 20.4258L21.6625 20.3766C19.7038 21.2549 16.983 19.5143 17.0187 17.1394C16.9978 17.2902 16.9593 17.2526 16.9159 17.3135C16.8148 16.0916 17.5079 14.8643 18.6769 14.3631C19.8203 13.8237 21.1608 14.045 21.9798 14.7726C21.5299 14.2109 20.6345 13.6155 19.5732 13.6712C18.5336 13.6869 17.5611 14.3166 17.2365 15.0001C16.704 15.3197 16.6422 16.2321 16.4101 16.3991C16.0978 18.5863 16.9974 19.5313 18.5192 20.6429C18.7587 20.7968 18.5866 20.8201 18.6191 20.9373C18.1135 20.7116 17.6505 20.371 17.2698 19.9539C17.4718 20.2357 17.6898 20.5096 17.9715 20.7249C17.4948 20.571 16.858 19.6239 16.6721 19.5853C17.4938 20.9876 20.0061 22.0446 21.3215 21.5202C20.7129 21.5417 19.9396 21.5322 19.2557 21.2912C18.9685 21.1503 18.5778 20.8585 18.6476 20.8039C20.4429 21.4431 22.2974 21.288 23.8508 20.1012C24.2459 19.8078 24.6776 19.3088 24.8024 19.3019C24.6145 19.5712 24.8344 19.4314 24.6901 19.6692C25.0839 19.0639 24.519 19.4228 25.0972 18.6239L25.3107 18.9042C25.2313 18.4018 25.9653 17.7917 25.8908 16.9971C26.0591 16.7541 26.0787 17.2585 25.9 17.8176C26.1479 17.1974 25.9653 17.0977 26.029 16.586C26.0979 16.758 26.1882 16.9408 26.2345 17.1223C26.073 16.523 26.4003 16.113 26.4813 15.7647C26.4015 15.731 26.232 16.0297 26.1933 15.3217C26.1989 15.0143 26.283 15.1606 26.3155 15.0849C26.2521 15.0502 26.0859 14.8145 25.9848 14.3624C26.0582 14.2562 26.1808 14.6378 26.2805 14.6535C26.2163 14.294 26.1059 14.0199 26.1014 13.7441C25.8101 13.1638 25.9983 13.8214 25.762 13.4949C25.4519 12.573 26.0193 13.281 26.0576 12.8621C26.5276 13.5111 26.7957 14.5171 26.9186 14.9338C26.8248 14.4258 26.6731 13.9336 26.4879 13.4575C26.6306 13.5147 26.258 12.4122 26.6735 13.1423C26.2296 11.5859 24.774 10.1316 23.4349 9.4492C23.5987 9.59213 23.8056 9.77159 23.7313 9.79973C23.0654 9.4218 23.1825 9.39236 23.0871 9.23265C22.5445 9.02226 22.5089 9.24961 22.1495 9.23303C21.127 8.71608 20.9299 8.77106 19.9889 8.44717L20.0317 8.63781C19.3542 8.42276 19.2424 8.71944 18.5102 8.63856C18.4656 8.60539 18.7448 8.51855 18.9745 8.48668C18.3195 8.56905 18.3502 8.36369 17.7093 8.50942C17.8673 8.40375 18.0343 8.33387 18.2028 8.24405C17.6686 8.27498 16.9276 8.54035 17.1564 8.29902C16.2852 8.66949 14.7378 9.18961 13.8695 9.96558L13.8421 9.79171C13.4443 10.247 12.1071 11.1513 12.0005 11.741L11.8942 11.7646C11.6871 12.0988 11.5532 12.4774 11.389 12.8213C11.1182 13.2611 10.9921 12.9905 11.0306 13.0594C10.498 14.0886 10.2334 14.9535 10.0049 15.6628C10.1678 15.8948 10.0088 17.0595 10.0704 17.9916C9.80291 22.5953 13.4603 27.0652 17.4581 28.0972C18.044 28.297 18.9155 28.2893 19.6567 28.3098C18.7821 28.0715 18.6691 28.1835 17.8172 27.9004C17.2027 27.6246 17.068 27.3097 16.6328 26.9496L16.805 27.2398C15.9514 26.9519 16.3086 26.8835 15.6141 26.6738L15.7981 26.4448C15.5215 26.4249 15.0653 26.0004 14.9406 25.7654L14.6379 25.7767C14.2742 25.3491 14.0805 25.0408 14.0946 24.8021L13.9968 24.9681C13.8859 24.7868 12.6589 23.3642 13.2955 23.6953C13.1772 23.5923 13.02 23.5276 12.8495 23.2324L12.9791 23.0912C12.6727 22.7155 12.4152 22.234 12.4348 22.0735C12.5982 22.2839 12.7116 22.3232 12.8239 22.3592C12.0502 20.5296 12.0068 22.2584 11.4208 20.4968L11.5448 20.4873C11.4498 20.3509 11.3921 20.2027 11.3156 20.0574L11.3696 19.5449C10.8126 18.931 11.2138 16.9348 11.2941 15.84C11.3499 15.3948 11.7591 14.9209 12.0703 14.1777L11.8807 14.1466C12.2432 13.5439 13.9505 11.7262 14.7411 11.8198C15.1242 11.3612 14.6651 11.8181 14.5902 11.7026C15.4315 10.8727 15.6961 11.1163 16.2638 10.967C16.8762 10.6206 15.7383 11.1022 16.0286 10.8349C17.0872 10.5772 16.7788 10.249 18.1598 10.1182C18.3054 10.1972 17.8217 10.2403 17.7003 10.3428C18.5823 9.93148 20.4914 10.025 21.7313 10.571C23.1702 11.2119 24.7867 13.1064 24.8504 14.8889L24.923 14.9075C24.8862 15.616 25.0368 16.4354 24.776 17.1881L24.9535 16.8318Z" fill="white"/>
<path d="M16.2294 19.2372L16.1802 19.472C16.4111 19.7709 16.5943 20.0948 16.8891 20.3285C16.677 19.9338 16.5194 19.7707 16.2294 19.2372Z" fill="white"/>
<path d="M16.7752 19.2167C16.653 19.0879 16.5807 18.9329 16.4998 18.7784C16.5772 19.0499 16.7357 19.2832 16.8834 19.5205L16.7752 19.2167Z" fill="white"/>
<path d="M26.4348 17.2157L26.3832 17.339C26.2885 17.9797 26.0842 18.6137 25.771 19.2014C26.1171 18.5813 26.3409 17.9029 26.4348 17.2157Z" fill="white"/>
<path d="M18.8016 8.20007C19.0391 8.11714 19.3856 8.1546 19.6376 8.1C19.3091 8.12627 18.9822 8.14193 18.6594 8.18162L18.8016 8.20007Z" fill="white"/>
<path d="M10.4618 12.4269C10.5165 12.91 10.0805 13.0974 10.5583 12.779C10.8145 12.229 10.4582 12.6271 10.4618 12.4269Z" fill="white"/>
<path d="M9.90009 14.6624C10.0102 14.3404 10.0301 14.147 10.0721 13.9606C9.76792 14.3313 9.93215 14.4103 9.90009 14.6624Z" fill="white"/>
</g>
<defs>
<clipPath id="clip0">
<rect width="17.0182" height="20.2091" fill="white" transform="translate(9.90015 8.1)"/>
</clipPath>
</defs>
</svg>
