<svg width="35" height="35" viewBox="0 0 35 35" fill="none" xmlns="http://www.w3.org/2000/svg">
<circle cx="17.5" cy="17.5" r="17.5" fill="#ECEFFF"/>
<rect x="9" y="10" width="16" height="16" rx="2" fill="#5667F5"/>
<path d="M16.7201 22.5055C16.1746 22.4255 15.6873 22.2146 15.2582 21.8727C14.8364 21.5309 14.5346 21.04 14.3528 20.4L15.6073 19.8873C15.6801 20.1782 15.8146 20.44 16.011 20.6727C16.2073 20.8982 16.4437 21.0545 16.7201 21.1418V19.0691L16.6219 19.0255C16.3528 18.9236 16.0982 18.8036 15.8582 18.6655C15.6255 18.5273 15.4182 18.3673 15.2364 18.1855C15.0619 18.0036 14.9201 17.8 14.811 17.5746C14.7091 17.3418 14.6582 17.0836 14.6582 16.8C14.6582 16.5382 14.7055 16.2909 14.8001 16.0582C14.8946 15.8255 15.0291 15.6182 15.2037 15.4364C15.3855 15.2545 15.6037 15.1055 15.8582 14.9891C16.1128 14.8655 16.4001 14.7855 16.7201 14.7491V13.8109H17.691V14.7709C17.9819 14.8145 18.2328 14.8909 18.4437 15C18.6619 15.1091 18.8473 15.2364 19.0001 15.3818C19.1601 15.52 19.2873 15.6691 19.3819 15.8291C19.4764 15.9891 19.5491 16.1455 19.6001 16.2982L18.3782 16.8436C18.3273 16.6982 18.2473 16.56 18.1382 16.4291C18.0291 16.2982 17.8801 16.1927 17.691 16.1127V18.0655C18.0037 18.1964 18.2873 18.3309 18.5419 18.4691C18.7964 18.6073 19.0146 18.7636 19.1964 18.9382C19.3782 19.1127 19.5164 19.3127 19.611 19.5382C19.7055 19.7564 19.7528 20.0109 19.7528 20.3018C19.7528 20.6291 19.6946 20.92 19.5782 21.1745C19.4691 21.4291 19.3201 21.6473 19.131 21.8291C18.9419 22.0109 18.7201 22.1564 18.4655 22.2655C18.2182 22.3745 17.9601 22.4509 17.691 22.4945V23.4545H16.7201V22.5055ZM16.0001 16.8C16.0001 16.9745 16.0546 17.1273 16.1637 17.2582C16.2801 17.3818 16.4655 17.5091 16.7201 17.64V16.0473C16.5019 16.1055 16.3273 16.2 16.1964 16.3309C16.0655 16.4618 16.0001 16.6182 16.0001 16.8ZM18.3564 20.3127C18.3564 20.1236 18.3055 19.9673 18.2037 19.8436C18.1019 19.72 17.931 19.5964 17.691 19.4727V21.1418C17.8873 21.0764 18.0473 20.9745 18.171 20.8364C18.2946 20.6909 18.3564 20.5164 18.3564 20.3127Z" fill="white"/>
</svg>
