<svg width="36" height="36" viewBox="0 0 36 36" fill="none" xmlns="http://www.w3.org/2000/svg">
<path d="M17 0.577351C17.6188 0.220085 18.3812 0.220085 19 0.57735L32.5885 8.42265C33.2073 8.77991 33.5885 9.44017 33.5885 10.1547V25.8453C33.5885 26.5598 33.2073 27.2201 32.5885 27.5774L19 35.4226C18.3812 35.7799 17.6188 35.7799 17 35.4226L3.41154 27.5774C2.79274 27.2201 2.41154 26.5598 2.41154 25.8453V10.1547C2.41154 9.44017 2.79274 8.77991 3.41154 8.42265L17 0.577351Z" fill="#777BB3"/>
<path d="M10.2998 15.3385H13.0241C13.8237 15.3452 14.4031 15.5757 14.7623 16.0297C15.1215 16.4837 15.2401 17.1038 15.1181 17.8899C15.0707 18.2491 14.9656 18.6015 14.803 18.9471C14.647 19.2927 14.4303 19.6044 14.1524 19.8823C13.8135 20.2346 13.451 20.4582 13.0647 20.5532C12.6784 20.6481 12.2786 20.6955 11.8652 20.6955H10.6454L10.2591 22.6269H8.84619L10.2998 15.3385ZM11.4891 16.4973L10.8792 19.5468C10.9199 19.5535 10.9605 19.557 11.0012 19.557C11.0486 19.557 11.0961 19.557 11.1435 19.557C11.7941 19.5637 12.3363 19.4995 12.7699 19.3639C13.2036 19.2215 13.4951 18.7269 13.6441 17.8798C13.7661 17.1682 13.6441 16.7581 13.2782 16.6498C12.919 16.5414 12.4684 16.4906 11.9262 16.4973C11.8449 16.504 11.767 16.5075 11.6924 16.5075C11.6247 16.5075 11.5536 16.5075 11.479 16.5075L11.4891 16.4973Z" fill="white"/>
<path d="M16.7275 13.3969H18.1302L17.7338 15.3384H18.9943C19.6855 15.3521 20.2005 15.4944 20.5394 15.7654C20.885 16.0364 20.9866 16.5515 20.8443 17.3105L20.1633 20.6955H18.7401L19.3907 17.4629C19.4584 17.124 19.4381 16.8835 19.3297 16.7412C19.2214 16.5989 18.9876 16.5278 18.6283 16.5278L17.5 16.5176L16.6665 20.6955H15.2637L16.7275 13.3969Z" fill="white"/>
<path d="M22.3508 15.3385H25.0751C25.8747 15.3452 26.4541 15.5757 26.8133 16.0297C27.1725 16.4837 27.2911 17.1038 27.1691 17.8899C27.1217 18.2491 27.0166 18.6015 26.854 18.9471C26.698 19.2927 26.4813 19.6044 26.2034 19.8823C25.8645 20.2346 25.502 20.4582 25.1157 20.5532C24.7295 20.6481 24.3296 20.6955 23.9163 20.6955H22.6964L22.3102 22.6269H20.8972L22.3508 15.3385ZM23.5401 16.4973L22.9302 19.5468C22.9709 19.5535 23.0116 19.557 23.0522 19.557C23.0996 19.557 23.1472 19.557 23.1945 19.557C23.8451 19.5637 24.3873 19.4995 24.821 19.3639C25.2546 19.2215 25.5461 18.7269 25.6952 17.8798C25.8171 17.1682 25.6952 16.7581 25.3292 16.6498C24.97 16.5414 24.5195 16.4906 23.9772 16.4973C23.8959 16.504 23.8181 16.5075 23.7434 16.5075C23.6757 16.5075 23.6046 16.5075 23.53 16.5075L23.5401 16.4973Z" fill="white"/>
</svg>
