<svg width="70" height="70" viewBox="0 0 70 70" fill="none" xmlns="http://www.w3.org/2000/svg">
<circle cx="35" cy="35" r="35" fill="#FF598B"/>
<path d="M38.351 23.3547L38.0174 23.021C44.2218 24.4024 48.8746 29.9501 48.8746 36.5644C48.8747 44.2148 42.6504 50.4391 35 50.4391C27.3496 50.4391 21.1253 44.2148 21.1253 36.5644C21.1253 33.6449 22.0211 30.8526 23.7162 28.4888C25.3763 26.1737 27.6644 24.4465 30.3338 23.4936L30.3338 23.4936C30.9125 23.2869 31.2141 22.6503 31.0076 22.0716C30.801 21.4928 30.1642 21.1912 29.5855 21.3978L29.6192 21.492L29.5855 21.3978C26.4877 22.5038 23.8327 24.5076 21.9077 27.1921L21.989 27.2503L21.9077 27.1921C19.9401 29.9362 18.9 33.1774 18.9 36.5645C18.9 40.8648 20.5748 44.9081 23.6156 47.9489C26.6564 50.9895 30.6997 52.6644 35 52.6644C39.3003 52.6644 43.3436 50.9895 46.3844 47.9488C49.4252 44.9081 51.1 40.8647 51.1 36.5644C51.1 32.2641 49.4251 28.2207 46.3844 25.18C43.9401 22.7357 40.8475 21.1747 37.4944 20.6561L38.3512 19.7993C38.7857 19.3648 38.7857 18.6604 38.3512 18.2258C37.9167 17.7914 37.2122 17.7914 36.7777 18.2258L36.7777 18.2258L34.2132 20.7903C34.2132 20.7903 34.2132 20.7903 34.2132 20.7903C33.7787 21.2247 33.7787 21.9293 34.2132 22.3638L36.7776 24.9281C36.9948 25.1454 37.2798 25.2541 37.5643 25.2541C37.8488 25.2541 38.1338 25.1454 38.351 24.9282C38.7855 24.4937 38.7855 23.7892 38.351 23.3547Z" fill="white" stroke="white" stroke-width="0.2"/>
<path d="M34.8447 44.4069C34.4044 44.352 33.9767 44.2285 33.5615 44.0365C33.1463 43.8444 32.7563 43.5906 32.3915 43.275C32.0392 42.9595 31.7247 42.5753 31.4479 42.1226C31.1837 41.6699 30.9762 41.1485 30.8252 40.5586L32.6934 39.7149C32.8318 40.3185 33.0897 40.8536 33.4672 41.32C33.8446 41.7728 34.3038 42.0746 34.8447 42.2255V37.7805L34.7127 37.7187C34.222 37.5129 33.7691 37.2797 33.3539 37.019C32.9388 36.7447 32.5802 36.436 32.2783 36.093C31.9763 35.75 31.7436 35.3727 31.58 34.9611C31.4165 34.5496 31.3347 34.0831 31.3347 33.5618C31.3347 33.0953 31.4102 32.6494 31.5612 32.2241C31.7247 31.7988 31.9575 31.4147 32.2594 31.0717C32.5613 30.7287 32.9262 30.4475 33.3539 30.228C33.7943 29.9948 34.2912 29.8438 34.8447 29.7753V28.0055H36.4111V29.8164C36.9017 29.8987 37.3294 30.0428 37.6943 30.2486C38.0591 30.4544 38.3737 30.6944 38.6378 30.9688C38.902 31.2295 39.1159 31.5107 39.2795 31.8126C39.443 32.1007 39.5688 32.3751 39.6569 32.6357L37.8075 33.5206C37.7195 33.2325 37.5622 32.9444 37.3357 32.6563C37.1219 32.3682 36.8136 32.1487 36.4111 31.9978V36.1547C36.9017 36.3879 37.3609 36.6349 37.7886 36.8956C38.2164 37.1425 38.5875 37.4306 38.902 37.7599C39.2166 38.0754 39.4619 38.4458 39.638 38.8711C39.8267 39.2827 39.9211 39.7629 39.9211 40.3117C39.9211 40.929 39.8204 41.4709 39.6191 41.9374C39.4304 42.4039 39.1725 42.8086 38.8454 43.1516C38.5309 43.4945 38.1598 43.7689 37.732 43.9747C37.3169 44.1668 36.8765 44.304 36.4111 44.3863V46.1972H34.8447V44.4069ZM37.8264 40.3528C37.8264 39.9138 37.7069 39.5571 37.4678 39.2827C37.2414 39.0083 36.8891 38.7477 36.4111 38.5007V42.1843C36.8262 42.0609 37.1659 41.8482 37.4301 41.5464C37.6943 41.2309 37.8264 40.833 37.8264 40.3528ZM33.3539 33.5824C33.3539 33.9802 33.4734 34.3232 33.7125 34.6113C33.9641 34.8857 34.3415 35.1601 34.8447 35.4345V31.8949C34.3918 32.0046 34.027 32.2104 33.7502 32.5123C33.486 32.8004 33.3539 33.1571 33.3539 33.5824Z" fill="white"/>
</svg>
