<svg width="15" height="17" viewBox="0 0 15 17" fill="none" xmlns="http://www.w3.org/2000/svg">
<path d="M9.02802 2.79292L9.03889 2.80379C9.25485 3.01975 9.25486 3.36991 9.0389 3.58586C9.03889 3.58586 9.03889 3.58587 9.03888 3.58587M9.02802 2.79292L7.18032 1.72728C7.00341 1.90416 7.00341 2.19102 7.18032 2.36793L8.32755 3.51516C8.41601 3.60362 8.53195 3.64786 8.64786 3.64786C8.76377 3.64786 8.87975 3.60362 8.96817 3.51516L9.03888 3.58587M9.02802 2.79292C11.6837 3.47392 13.6525 5.88768 13.6525 8.75247C13.6525 12.1445 10.8927 14.9043 7.50067 14.9043C4.10864 14.9043 1.34881 12.1445 1.34881 8.7525C1.34881 7.45791 1.746 6.22 2.49756 5.17192L2.42663 5.12105L2.49756 5.17192C3.2337 4.14531 4.24819 3.37957 5.43174 2.95705L5.43175 2.95705C5.71939 2.85433 5.86929 2.53793 5.76662 2.25027L5.76662 2.25027C5.66393 1.9626 5.34746 1.81272 5.05983 1.91539L5.05983 1.91539C3.66331 2.41397 2.46637 3.31735 1.5987 4.5274C0.711663 5.76445 0.242773 7.22571 0.242773 8.75253C0.242773 10.691 0.997859 12.5139 2.36857 13.8846L2.43928 13.8139L2.36857 13.8846C3.73928 15.2552 5.5622 16.0104 7.50067 16.0104C9.43914 16.0104 11.2621 15.2553 12.6328 13.8846C14.0035 12.5139 14.7586 10.691 14.7586 8.7525C14.7586 6.81403 14.0034 4.99108 12.6328 3.6204C11.557 2.54463 10.2024 1.84827 8.73198 1.59838L9.03895 1.29139C9.25492 1.07542 9.25492 0.725284 9.03895 0.509313C8.823 0.293369 8.47284 0.293377 8.25687 0.509307L8.25687 0.509313L7.10962 1.65656C7.10962 1.65656 7.10962 1.65656 7.10961 1.65657C6.89364 1.87251 6.89365 2.22268 7.10961 2.43864L8.25684 3.58587C8.36479 3.69383 8.5065 3.74786 8.64786 3.74786C8.7892 3.74786 8.93094 3.69384 9.03888 3.58587M9.02802 2.79292L9.03888 3.58587" fill="#56606D" stroke="#56606D" stroke-width="0.2"/>
<path d="M7.43006 12.261C7.23307 12.2364 7.04171 12.1812 6.85598 12.0953C6.67025 12.0093 6.49577 11.8958 6.33255 11.7546C6.17496 11.6135 6.03425 11.4416 5.91043 11.2391C5.79224 11.0365 5.69937 10.8033 5.63184 10.5394L6.46763 10.1619C6.52954 10.432 6.64492 10.6713 6.81377 10.88C6.98261 11.0826 7.18804 11.2176 7.43006 11.2851V9.29652L7.37096 9.2689C7.15146 9.17683 6.94884 9.07249 6.76311 8.95588C6.57738 8.83313 6.41697 8.69503 6.2819 8.54159C6.14682 8.38815 6.0427 8.21937 5.96953 8.03524C5.89636 7.85112 5.85978 7.64244 5.85978 7.40921C5.85978 7.20053 5.89355 7.00106 5.96109 6.8108C6.03425 6.62053 6.13838 6.44868 6.27345 6.29524C6.40853 6.1418 6.57175 6.01598 6.76311 5.91778C6.9601 5.81344 7.18241 5.74593 7.43006 5.71524V4.92349H8.13077V5.73365C8.35027 5.77048 8.54163 5.83492 8.70485 5.92699C8.86807 6.01905 9.00878 6.12646 9.12697 6.24921C9.24516 6.36582 9.34084 6.49164 9.41401 6.62667C9.48718 6.75556 9.54346 6.87831 9.58286 6.99492L8.75551 7.3908C8.71611 7.26191 8.64576 7.13302 8.54445 7.00413C8.44877 6.87524 8.31088 6.77704 8.13077 6.70953V8.56921C8.35027 8.67355 8.5557 8.78403 8.74706 8.90064C8.93842 9.01112 9.10446 9.14001 9.24516 9.28731C9.38587 9.42847 9.49562 9.59419 9.57441 9.78445C9.65884 9.96858 9.70105 10.1834 9.70105 10.4289C9.70105 10.7051 9.65602 10.9475 9.56597 11.1562C9.48155 11.3649 9.36617 11.5459 9.21984 11.6994C9.07913 11.8528 8.9131 11.9756 8.72174 12.0676C8.53601 12.1536 8.33902 12.2149 8.13077 12.2518V13.0619H7.43006V12.261ZM8.76395 10.4473C8.76395 10.2509 8.71048 10.0913 8.60354 9.96858C8.50224 9.84583 8.34465 9.72922 8.13077 9.61874V11.2667C8.3165 11.2114 8.46847 11.1163 8.58666 10.9813C8.70485 10.8401 8.76395 10.6621 8.76395 10.4473ZM6.76311 7.41842C6.76311 7.59641 6.81658 7.74985 6.92352 7.87874C7.03608 8.00149 7.20493 8.12424 7.43006 8.24699V6.6635C7.22744 6.7126 7.06422 6.80466 6.9404 6.93969C6.82221 7.06858 6.76311 7.22815 6.76311 7.41842Z" fill="#56606D"/>
</svg>
