<svg width="35" height="35" viewBox="0 0 35 35" fill="none" xmlns="http://www.w3.org/2000/svg">
<circle cx="17.5" cy="17.5" r="17.5" fill="#ECEFFF"/>
<g clip-path="url(#clip0)">
<path d="M25.6469 12.4334L22.6223 9.49285C22.2977 9.17729 21.8575 9 21.3985 9H11.7308C10.7749 9 10 9.75335 10 10.6827V23.0224C10 23.9518 10.7749 24.7051 11.7308 24.7051H24.4231C25.379 24.7051 26.1538 23.9518 26.1538 23.0224V13.6233C26.1538 13.177 25.9715 12.749 25.6469 12.4334ZM18.0769 22.4615C16.8024 22.4615 15.7692 21.457 15.7692 20.2179C15.7692 18.9789 16.8024 17.9744 18.0769 17.9744C19.3514 17.9744 20.3846 18.9789 20.3846 20.2179C20.3846 21.457 19.3514 22.4615 18.0769 22.4615ZM21.5385 11.7863V15.3101C21.5385 15.5424 21.3447 15.7308 21.1058 15.7308H12.7404C12.5014 15.7308 12.3077 15.5424 12.3077 15.3101V11.6643C12.3077 11.4319 12.5014 11.2436 12.7404 11.2436H20.9803C21.0951 11.2436 21.2051 11.2879 21.2862 11.3668L21.4117 11.4888C21.4519 11.5279 21.4838 11.5742 21.5055 11.6253C21.5273 11.6763 21.5385 11.731 21.5385 11.7863Z" fill="#6777F3"/>
</g>
<defs>
<clipPath id="clip0">
<rect width="16.1538" height="17.9487" fill="white" transform="translate(9.87183 8.07692)"/>
</clipPath>
</defs>
</svg>
