<svg width="35" height="35" viewBox="0 0 35 35" fill="none" xmlns="http://www.w3.org/2000/svg">
<circle cx="17.5" cy="17.5" r="17.5" fill="#ECEFFF"/>
<path d="M18 10.125C13.0289 10.125 9 13.398 9 17.4375C9 19.1812 9.75234 20.7773 11.0039 22.0324C10.5645 23.8043 9.09492 25.3828 9.07734 25.4004C9 25.4812 8.97891 25.6008 9.02461 25.7063C9.07031 25.8117 9.16875 25.875 9.28125 25.875C11.6121 25.875 13.3594 24.757 14.2242 24.068C15.3738 24.5004 16.65 24.75 18 24.75C22.9711 24.75 27 21.477 27 17.4375C27 13.398 22.9711 10.125 18 10.125ZM13.507 19.6875H13.0781C12.9234 19.6875 12.7969 19.5609 12.7969 19.4062V18.8438C12.7969 18.6891 12.9234 18.5625 13.0781 18.5625H13.5105C13.7215 18.5625 13.8762 18.4395 13.8762 18.3305C13.8762 18.2848 13.848 18.2355 13.8023 18.1969L13.0324 17.5359C12.7336 17.2828 12.5648 16.9207 12.5648 16.548C12.5648 15.7992 13.2328 15.191 14.0555 15.191H14.4844C14.6391 15.191 14.7656 15.3176 14.7656 15.4723V16.0348C14.7656 16.1895 14.6391 16.316 14.4844 16.316H14.052C13.841 16.316 13.6863 16.4391 13.6863 16.548C13.6863 16.5938 13.7145 16.643 13.7602 16.6816L14.5301 17.3426C14.8289 17.5957 14.9977 17.9578 14.9977 18.3305C15.0012 19.0793 14.3297 19.6875 13.507 19.6875ZM20.25 19.4062C20.25 19.5609 20.1234 19.6875 19.9688 19.6875H19.4062C19.2516 19.6875 19.125 19.5609 19.125 19.4062V17.0086L18.2531 18.9703C18.1512 19.1777 17.8523 19.1777 17.7504 18.9703L16.875 17.0086V19.4062C16.875 19.5609 16.7484 19.6875 16.5938 19.6875H16.0312C15.8766 19.6875 15.75 19.5609 15.75 19.4062V15.75C15.75 15.4406 16.0031 15.1875 16.3125 15.1875H16.875C17.0895 15.1875 17.2828 15.307 17.3777 15.4969L18 16.7414L18.6223 15.4969C18.7172 15.307 18.9141 15.1875 19.125 15.1875H19.6875C19.9969 15.1875 20.25 15.4406 20.25 15.75V19.4062ZM21.948 19.6875H21.5156C21.3609 19.6875 21.2344 19.5609 21.2344 19.4062V18.8438C21.2344 18.6891 21.3609 18.5625 21.5156 18.5625H21.948C22.159 18.5625 22.3137 18.4395 22.3137 18.3305C22.3137 18.2848 22.2855 18.2355 22.2398 18.1969L21.4699 17.5359C21.1711 17.2828 21.0023 16.9207 21.0023 16.548C21.0023 15.7992 21.6703 15.191 22.493 15.191H22.9219C23.0766 15.191 23.2031 15.3176 23.2031 15.4723V16.0348C23.2031 16.1895 23.0766 16.316 22.9219 16.316H22.4895C22.2785 16.316 22.1238 16.4391 22.1238 16.548C22.1238 16.5938 22.152 16.643 22.1977 16.6816L22.9676 17.3426C23.2664 17.5957 23.4352 17.9578 23.4352 18.3305C23.4387 19.0793 22.7707 19.6875 21.948 19.6875Z" fill="#5667F5"/>
</svg>
