<svg width="35" height="35" viewBox="0 0 35 35" fill="none" xmlns="http://www.w3.org/2000/svg">
<circle cx="17.5" cy="17.5" r="17.5" fill="#6777F3"/>
<path d="M24.5607 13.0607L21.9393 10.4393C21.658 10.158 21.2765 10 20.8787 10H12.5C11.6716 10 11 10.6716 11 11.5V22.5C11 23.3284 11.6716 24 12.5 24H23.5C24.3284 24 25 23.3284 25 22.5V14.1213C25 13.7235 24.842 13.342 24.5607 13.0607ZM18 22C16.8954 22 16 21.1046 16 20C16 18.8954 16.8954 18 18 18C19.1046 18 20 18.8954 20 20C20 21.1046 19.1046 22 18 22ZM21 12.4838V15.625C21 15.8321 20.8321 16 20.625 16H13.375C13.1679 16 13 15.8321 13 15.625V12.375C13 12.1679 13.1679 12 13.375 12H20.5162C20.6157 12 20.7111 12.0395 20.7814 12.1098L20.8902 12.2186C20.925 12.2534 20.9526 12.2947 20.9715 12.3402C20.9903 12.3857 21 12.4345 21 12.4838Z" fill="white"/>
</svg>
