<svg width="70" height="70" viewBox="0 0 70 70" fill="none" xmlns="http://www.w3.org/2000/svg">
<circle cx="35" cy="35" r="35" fill="#58CBEF"/>
<path d="M26.7431 29.0088C27.0599 29.0088 27.2801 29.0088 27.5018 29.0088C33.8366 29.0088 40.1714 29.0088 46.5079 29.0088C46.7163 29.0088 46.9264 28.9988 47.1332 29.0155C48.1887 29.0989 48.9974 29.9662 48.9974 31.0069C48.9974 32.041 48.177 32.9066 47.1198 32.9833C46.9948 32.9916 46.8697 32.9883 46.7447 32.9883C38.9291 32.9883 31.1153 32.9883 23.2998 32.9883C23.2164 32.9883 23.133 32.99 23.0496 32.9866C21.3638 32.9349 20.4517 31.2904 21.3655 29.8744C22.6644 27.863 24.0034 25.875 25.3508 23.8952C25.9994 22.9412 27.1817 22.7328 28.0988 23.3515C28.9892 23.9519 29.2427 25.0994 28.6557 26.0551C28.1655 26.8523 27.6236 27.6195 27.1083 28.4017C26.9982 28.5702 26.9015 28.747 26.7431 29.0088Z" fill="white"/>
<path d="M43.2578 40.9955C41.6186 40.9955 40.0996 40.9955 38.5788 40.9955C33.4513 40.9955 28.3254 40.9922 23.1979 40.9989C22.3308 41.0005 21.6471 40.6887 21.2336 39.9131C20.5716 38.6756 21.387 37.1812 22.7944 37.0261C22.9178 37.0128 23.0445 37.0161 23.1695 37.0161C31.0268 37.0161 38.884 37.0161 46.7395 37.0178C47.9084 37.0178 48.6438 37.5314 48.9222 38.5055C49.0823 39.0659 48.9889 39.5912 48.6805 40.0599C47.3398 42.0946 45.9991 44.1311 44.6235 46.1425C43.9765 47.0881 42.7759 47.2649 41.8621 46.6262C40.99 46.0174 40.7649 44.8616 41.3635 43.9109C41.8971 43.0653 42.4674 42.2448 43.0193 41.4108C43.086 41.3124 43.1394 41.204 43.2578 40.9955Z" fill="white"/>
</svg>
