<svg width="35" height="35" viewBox="0 0 35 35" fill="none" xmlns="http://www.w3.org/2000/svg">
<circle cx="17.5" cy="17.5" r="17.5" fill="#ECEFFF"/>
<path d="M13.0993 14.0761C13.2746 14.0761 13.3965 14.0761 13.5192 14.0761C17.0253 14.0761 20.5314 14.0761 24.0384 14.0761C24.1537 14.0761 24.27 14.0701 24.3844 14.0802C24.9686 14.1308 25.4162 14.6573 25.4162 15.289C25.4162 15.9167 24.9622 16.4422 24.3771 16.4888C24.3078 16.4938 24.2386 16.4918 24.1694 16.4918C19.8438 16.4918 15.5191 16.4918 11.1935 16.4918C11.1474 16.4918 11.1012 16.4928 11.0551 16.4908C10.122 16.4594 9.61722 15.4612 10.123 14.6016C10.8419 13.3806 11.583 12.1738 12.3287 10.972C12.6877 10.3929 13.342 10.2663 13.8496 10.6419C14.3424 11.0064 14.4827 11.703 14.1579 12.2831C13.8865 12.7671 13.5866 13.2328 13.3014 13.7076C13.2405 13.8099 13.187 13.9172 13.0993 14.0761Z" fill="#5667F5"/>
<path d="M22.2393 21.3525C21.3321 21.3525 20.4913 21.3525 19.6496 21.3525C16.8117 21.3525 13.9748 21.3505 11.1369 21.3545C10.657 21.3555 10.2786 21.1662 10.0497 20.6954C9.6833 19.9442 10.1346 19.0371 10.9135 18.9429C10.9818 18.9348 11.052 18.9368 11.1212 18.9368C15.4699 18.9368 19.8185 18.9368 24.1663 18.9378C24.8132 18.9378 25.2202 19.2497 25.3744 19.8409C25.463 20.1811 25.4113 20.5 25.2405 20.7845C24.4985 22.0197 23.7565 23.2559 22.9951 24.4769C22.637 25.0509 21.9726 25.1583 21.4668 24.7705C20.9841 24.4009 20.8596 23.6993 21.1909 23.1222C21.4862 22.6089 21.8018 22.1108 22.1073 21.6046C22.1442 21.5449 22.1738 21.4791 22.2393 21.3525Z" fill="#5667F5"/>
</svg>
