<svg width="35" height="35" viewBox="0 0 35 35" fill="none" xmlns="http://www.w3.org/2000/svg">
<circle cx="17.5" cy="17.5" r="17.5" fill="#31CC96"/>
<path d="M17.5 8C12.252 8 8 12.252 8 17.5C8 22.748 12.252 27 17.5 27C22.748 27 27 22.748 27 17.5C27 12.252 22.748 8 17.5 8ZM21.043 19.9899L20.2768 20.9476C20.2266 21.0104 20.1644 21.0628 20.0939 21.1016C20.0234 21.1404 19.9459 21.165 19.8659 21.1739C19.7859 21.1828 19.7049 21.1758 19.6276 21.1534C19.5503 21.131 19.4782 21.0936 19.4153 21.0433L16.8488 19.1388C16.6695 18.9952 16.5247 18.8131 16.4253 18.606C16.3258 18.399 16.2742 18.1722 16.2742 17.9424V11.9839C16.2742 11.8213 16.3388 11.6654 16.4537 11.5505C16.5687 11.4355 16.7245 11.371 16.8871 11.371H18.1129C18.2755 11.371 18.4314 11.4355 18.5463 11.5505C18.6612 11.6654 18.7258 11.8213 18.7258 11.9839V17.5L20.9476 19.128C21.0105 19.1783 21.0628 19.2405 21.1017 19.3111C21.1405 19.3816 21.165 19.4592 21.1739 19.5392C21.1827 19.6192 21.1757 19.7003 21.1533 19.7776C21.1308 19.8549 21.0933 19.9271 21.043 19.9899Z" fill="white"/>
</svg>
